<?xml version="1.0" encoding="UTF-8"?>
<svg width="287px" height="80px" viewBox="0 0 287 80" version="1.1" xmlns="http://www.w3.org/2000/svg" xmlns:xlink="http://www.w3.org/1999/xlink">
    <!-- Generator: Sketch 52.2 (67145) - http://www.bohemiancoding.com/sketch -->
    <title>Brand/Logo/TheReefPlayacarFullColor</title>
    <desc>Created with Sketch.</desc>
    <g id="Brand/Logo/TheReefPlayacarFullColor" stroke="none" stroke-width="1" fill="none" fill-rule="evenodd">
        <path d="M59.9152941,74.0447059 C59.8174282,73.9569253 59.7347451,73.8535714 59.6705882,73.7388235 C59.4785479,73.3882365 59.388483,72.9908914 59.4105882,72.5917647 C59.4105882,72.1176471 59.5329412,71.3988235 59.8388235,71.2305882 C60.3715047,70.9795122 60.9884953,70.9795122 61.5211765,71.2305882 C62.2705882,71.72 63.0505882,72.2094118 63.8,72.6376471 C63.8,72.6376471 64.3352941,72.2705882 64.4117647,72.24 L65.0388235,71.7964706 C65.4734271,71.5322715 65.887537,71.2357484 66.2776471,70.9094118 C65.8317154,70.5749462 65.3028648,70.3686944 64.7482353,70.3129412 C64.32,70.2211765 63.9070588,70.0988235 63.4941176,69.9764706 C62.6835294,69.7470588 61.8729412,69.5023529 61.0470588,69.3188235 C59.9458824,69.0894118 58.6917647,68.4011765 57.6058824,68.2941176 C56.0764706,68.1411765 57.1317647,68.6152941 56.2752941,69.4258824 C55.973686,69.6236578 55.6258341,69.7396084 55.2658824,69.7623529 C55.1146436,69.7843134 54.9865698,69.885207 54.929812,70.0271013 C54.8730543,70.1689956 54.8962157,70.3303832 54.9905882,70.4505882 C55.2862502,70.80341 55.5331651,71.1943586 55.7247059,71.6129412 C55.8470588,71.9647059 55.9541176,73.1423529 55.4952941,73.3870588 C55.0364706,73.6317647 54.6388235,72.9129412 54.3482353,72.7294118 C52.9429244,71.9540187 51.4412942,71.3677659 49.8823529,70.9858824 C49.3776471,70.8635294 48.9035294,71.1235294 48.4294118,70.9858824 C47.6110692,70.7065381 46.8262636,70.3372178 46.0894118,69.8847059 C45.6987254,69.695921 45.2691315,69.6016199 44.8352941,69.6094118 C44.4988235,69.6094118 43.8258824,69.7776471 43.9635294,70.2364706 C44.1500985,70.669617 44.4793326,71.0258375 44.8964706,71.2458824 L46.4258824,72.0564706 C47.4786908,72.6157039 48.5855387,73.0666419 49.7294118,73.4023529 L50.0352941,73.4788235 C50.7867151,73.588313 51.5320119,73.7363514 52.2682353,73.9223529 C53.2929412,74.2894118 53.9352941,75.2223529 54.96,75.5588235 L56.6729412,76.1247059 C58.0439539,75.6274903 59.3867439,75.0556558 60.6952941,74.4117647 C60.5117647,74.2282353 60.3129412,74.2588235 60.0988235,74.1823529 C60.0347309,74.1579823 59.9732462,74.12724 59.9152941,74.0905882 M28.7458824,3.73764706 C28.7405556,4.24729017 28.9198276,4.74164649 29.2505882,5.12941176 C29.8623529,5.68 30.8870588,5.03764706 31.4988235,4.82352941 C32.4216123,4.49855764 33.3673789,4.24294504 34.3282353,4.05882353 C35.1541176,3.87529412 35.98,4.36470588 36.8211765,4.21176471 C37.6077496,3.97183224 38.3051699,3.50333616 38.8247059,2.86588235 C39.3047013,2.30648677 39.7442448,1.71361423 40.14,1.09176471 C40.9811765,1 41.8376471,1 42.6941176,1 C42.4303653,1.25882554 42.1898348,1.54029734 41.9752941,1.84117647 C41.3635294,2.72823529 41.4552941,3.76823529 40.9047059,4.62470588 C39.9564706,6.15411765 38.1517647,6.15411765 36.6376471,6.47529412 C34.3282353,6.85764706 32.0494118,7.68352941 29.74,8.20352941 C29.3562116,8.29240723 28.978245,8.40477569 28.6082353,8.54 C28.1134986,8.68816921 27.699755,9.0301973 27.4611765,9.48823529 C27.3374378,9.7823792 27.2501235,10.0905475 27.2011765,10.4058824 C26.8035294,12.6388235 29.2811765,10.2988235 29.4647059,10.8341176 C29.5719329,11.1515824 29.5719329,11.4954764 29.4647059,11.8129412 C29.3423529,12.18 28.96,12.44 28.7917647,12.7917647 C28.6235294,13.1435294 28.0576471,13.9388235 28.1188235,14.4741176 C28.2385814,16.0626245 28.5152232,17.6353842 28.9447059,19.1694118 C29.9541176,22.5035294 28.9447059,25.6694118 28.1035294,28.7588235 C27.3737117,30.6770781 27.7879427,32.8429141 29.1741176,34.3564706 C29.5420397,34.7856556 29.7619184,35.3219452 29.8011765,35.8858824 C29.7288635,36.4255939 29.8979217,36.9697609 30.2633342,37.3734828 C30.6287468,37.7772047 31.153421,37.9995002 31.6976471,37.9811765 C32.094804,38.0293408 32.4734734,38.1766012 32.7988235,38.4094118 C33.8678672,39.1447433 34.8895004,39.9467254 35.8576471,40.8105882 C36.3011765,41.2541176 36.7141176,41.7435294 37.1117647,42.2176471 L37.7388235,42.9976471 C37.9529412,43.2576471 38.1517647,43.7164706 38.5188235,43.4717647 C38.8069927,43.2536317 39.0249813,42.9558913 39.1458824,42.6152941 C39.4390794,41.8129338 39.400553,40.9268264 39.0388235,40.1529412 C38.7941176,39.5411765 38.2282353,38.9752941 38.1976471,38.3788235 C38.1670588,37.7823529 38.6717647,37.3847059 38.6870588,36.8494118 C38.6448486,36.4920069 38.409914,36.186592 38.0752941,36.0541176 C37.7694118,35.8705882 37.4482353,35.7023529 37.1270588,35.5341176 C36.3011765,35.1058824 35.4752941,34.6929412 34.6494118,34.2494118 C33.6590185,33.7342355 32.7081778,33.1463502 31.8047059,32.4905882 C31.3,32.0929412 30.52,31.4964706 30.5505882,30.7776471 C30.5505882,29.5082353 31.5294118,30.4717647 32.2635294,30.2576471 C33.5329412,29.8905882 33.5941176,28.6058824 34.1905882,27.5047059 C35.5657021,25.1849744 36.7228097,22.7427605 37.6470588,20.2094118 C37.9517674,19.5071819 38.0626747,18.7361121 37.9682353,17.9764706 C37.5705882,16.5847059 36.7905882,15.2847059 36.3470588,13.8929412 C36.2247059,13.5105882 36.1176471,13.1129412 36.0105882,12.7305882 C35.8117647,12.0117647 35.6741176,11.2011765 35.4905882,10.5588235 C35.4141176,10.1917647 35.3376471,9.84 35.2458824,9.47294118 C35.1541176,9.10588235 35.3682353,8.76941176 35.7658824,8.96823529 C36.0353415,9.16979029 36.2205921,9.46401186 36.2858824,9.79411765 C36.6988235,11.2164706 37.0811765,12.6541176 37.5858824,14.0458824 C37.8305882,14.7188235 38.3658824,15.6823529 38.8858824,15.7741176 C39.4058824,15.8658824 40.1858824,15.1929412 40.4152941,14.2447059 C40.7405163,12.5900048 41.1800001,10.9598265 41.7305882,9.36588235 C41.9561447,9.01579806 42.3390715,8.79861569 42.7552941,8.78470588 C43.0764706,8.78470588 43.6270588,9.27411765 43.6270588,9.53411765 C43.6270588,10.8647059 43,12.8223529 43.4282353,14.1223529 C43.7035294,14.9788235 44.5905882,15.4070588 44.9576471,16.2023529 C45.3247059,16.9976471 45.2329412,17.9 45.5388235,18.7564706 C45.6997578,19.0617276 46.0054794,19.2636191 46.3494118,19.2917647 C46.5635294,19.2917647 46.8847059,18.8329412 46.9305882,18.5576471 C47.3129412,16.2329412 48.6282353,12.44 47.8482353,10.1611765 C47.2517647,8.40235294 44.9882353,8.17294118 44.1623529,6.65882353 C42.7552941,4.05882353 46.3952941,5.72588235 47.4047059,5.58823529 C49.1482353,5.42 49.2552941,3.27882353 49.6070588,1.55058824 C50.3717647,1.67294118 51.1364706,1.84117647 51.8705882,2.00941176 C51.7941176,3.32470588 51.7176471,4.64 51.5952941,5.95529412 C51.5952941,6.44470588 50.8,6.85764706 50.7082353,7.36235294 C50.3564706,9.35058824 50.0964706,11.3694118 49.8517647,13.3729412 C49.7141176,14.52 49.6529412,15.6670588 49.5917647,16.8294118 C49.5,18.6035294 49.3929412,20.3929412 49.4541176,22.1670588 C49.4541176,22.5494118 50.0964706,23.0694118 50.54,23.1917647 C50.9835294,23.3141176 51.3352941,22.6258824 51.5035294,22.2282353 C51.9623529,21.1882353 52.1611765,20.0258824 52.6811765,19.0317647 C53.3654182,17.4830519 53.7742902,15.8268614 53.8894118,14.1376471 C53.9345536,13.4328833 54.0576579,12.7352925 54.2564706,12.0576471 C54.5164706,11.3388235 55.2352941,10.8952941 55.1129412,10.0388235 C55.0364706,9.54941176 54.3788235,9.19764706 54.3023529,8.67764706 C54.0423529,6.84235294 55.4647059,5.03764706 56.0152941,3.23294118 L57.9270588,4.05882353 C57.8891936,4.19475196 57.8585624,4.33259251 57.8352941,4.47176471 C57.4260068,6.19723695 57.1953802,7.96024955 57.1470588,9.73294118 C57.2541176,12.4247059 57.4070588,15.04 55.6176471,17.38 C55.266877,17.9505557 55.0523056,18.5942699 54.9905882,19.2611765 C54.8223529,20.1788235 55.6023529,20.5152941 56.1223529,19.72 C56.8105882,18.6341176 57.4529412,17.5482353 58.0952941,16.4317647 C58.4229581,15.5202707 58.6986945,14.5909371 58.9211765,13.6482353 C59.1658824,13.0670588 59.6858824,12.6541176 59.9458824,12.1188235 C60.3761472,10.892321 60.4866856,9.57638753 60.2670588,8.29529412 C60.1752941,6.76588235 60.1294118,6.07764706 60.7411765,5.46588235 C61.5517647,5.89411765 62.3623529,6.33764706 63.1423529,6.82705882 C63.0417377,7.73989793 63.1143827,8.66352684 63.3564706,9.54941176 C63.5136451,10.0256384 63.8329918,10.4315876 64.2588235,10.6964706 C65.4227486,11.1870826 66.521968,11.8188769 67.5317647,12.5776471 C68.3423529,13.3423529 71.8447059,18.9094118 73.0529412,15.6364706 C73.0444378,15.6064733 73.0444378,15.5747031 73.0529412,15.5447059 C75.1002817,18.088549 76.8214785,20.8784292 78.1764706,23.8494118 C78.1764706,23.6964706 77.5952941,23.4976471 77.4423529,23.4058824 C77.2894118,23.3141176 76.8917647,23.1 76.6317647,22.9317647 C76.2700933,22.6693059 75.8737687,22.458276 75.4541176,22.3047059 C74.477864,22.031415 73.487357,21.8118697 72.4870588,21.6470588 L68.2352941,20.6529412 C67.8376471,20.6529412 67.3635294,20.3929412 67.0576471,20.5305882 C66.5142744,20.7207695 66.0579899,21.1010065 65.7729412,21.6011765 C65.2070588,23.4211765 64.7941176,25.3023529 64.2435294,27.1529412 C63.8723747,28.1311034 64.2680868,29.2339074 65.1764706,29.7529412 C66.0329412,30.4105882 66.0329412,31.9094118 67.1188235,32.2305882 C67.6904424,32.2965908 68.2261598,32.5430208 68.6482353,32.9341176 C68.953974,33.4512867 69.2149247,33.9936549 69.4282353,34.5552941 C69.9941176,35.5035294 70.8505882,37.0176471 72.1811765,36.3905882 C74.0164706,35.5188235 72.1811765,33.5611765 72.3188235,32.3223529 C72.4564706,31.5423529 73.5117647,31.2823529 74.3223529,31.6341176 C75.1329412,31.9858824 75.0564706,32.8270588 75.3317647,33.76 C75.7550117,35.3878599 76.0616714,37.0438219 76.2494118,38.7152941 C76.2556777,39.6006137 76.5391491,40.461725 77.06,41.1776471 C77.4322239,41.500723 77.9133497,41.6702105 78.4058824,41.6517647 C79.0329412,41.6517647 79.3847059,41.6517647 79.7976471,41.1623529 C80.2105882,40.6729412 80.7305882,40.2141176 80.6847059,39.7858824 C80.5269022,38.3220189 80.0963434,36.9006561 79.4152941,35.5952941 C78.9411899,34.9335887 78.5070817,34.2441227 78.1152941,33.5305882 C77.8858824,32.98 77.9164706,32.3376471 77.7023529,31.7870588 C76.9117792,30.4667773 75.6832381,29.4655434 74.2305882,28.9576471 C72.9458824,28.3458824 71.5694118,27.9635294 70.2541176,27.4282353 C69.8717647,27.26 69.4282353,27.1682353 69.3364706,26.7247059 C69.308494,26.5023512 69.3814979,26.2791454 69.5354625,26.1162982 C69.6894271,25.953451 69.9081918,25.8680554 70.1317647,25.8835294 C71.0357476,25.941784 71.934934,26.0592913 72.8235294,26.2352941 C73.8941176,26.4494118 74.9494118,26.9082353 76.0352941,27.0152941 C77.8785501,27.3229518 79.4364215,28.5519392 80.1647059,30.2729412 C80.3788235,30.9764706 80.6694118,31.6647059 80.8988235,32.3682353 C81.1119813,33.1440787 81.2552977,33.9374375 81.3270588,34.7388235 C81.5467081,36.4327809 81.6590889,38.138926 81.6635294,39.8470588 C81.6416163,43.4183134 81.1269575,46.9694594 80.1341176,50.4 C79.0050153,49.4395976 77.5785041,48.8992525 76.0964706,48.8705882 C74.8665837,49.0082217 73.625181,49.0082217 72.3952941,48.8705882 C69.7647059,48.5035294 67.1341176,48.0141176 64.5035294,47.54 C64.1870301,47.4319791 63.83953,47.4636167 63.5477419,47.627018 C63.2559537,47.7904194 63.0473985,48.0701728 62.9741176,48.3964706 C62.2131697,49.5886017 61.6212551,50.8805196 61.2152941,52.2352941 C61.0164706,53.7647059 62.7447059,55.1564706 63.6164706,56.2270588 C64.2640473,57.0659966 65.1249999,57.7156725 66.1094118,58.1082353 C67.6388235,58.4141176 68.0517647,55.3247059 68.7705882,54.5141176 C69.3958688,53.9871663 70.1335632,53.6104713 70.9270588,53.4129412 C72.5872547,53.0398219 74.2974258,52.941655 75.9894118,53.1223529 C76.7082353,53.1223529 77.5188235,53.4894118 77.6105882,54.4376471 C77.7023529,55.3858824 76.3564706,55.3247059 75.4847059,55.4623529 C73.9552941,55.7070588 70.4835294,55.6305882 70.0094118,56.9917647 C69.6480046,58.1954395 69.5437883,59.4616676 69.7035294,60.7082353 C69.7952941,61.5647059 70.4835294,63.2470588 69.0458824,63.2929412 C68.0517647,63.2929412 66.8129412,61.8858824 65.9870588,61.4117647 C64.8104617,60.8409056 63.6935871,60.1543864 62.6529412,59.3623529 C61.4447059,58.2764706 60.9705882,57.8329412 59.4411765,58.7658824 C58.3705882,59.4541176 53.8129412,62.3294118 54.1647059,63.8435294 C54.5164706,65.3576471 61.6588235,65.3729412 63.0352941,65.3729412 C64.7635294,65.3729412 66.4764706,65.5105882 68.1741176,65.6635294 C69.4877749,65.7069229 70.7872551,65.9492863 72.0282353,66.3823529 C75.6223529,69.7317647 72.1505882,70.2364706 68.9694118,68.3705882 C66.3847059,67.7588235 63.8305882,67.4070588 61.1694118,66.9788235 C60.2364706,66.8411765 59.3341176,66.4435294 58.3705882,66.2447059 C57.4530178,66.0271084 56.5146437,65.9091706 55.5717647,65.8929412 C53.4458824,65.8929412 54.3941176,68.86 52.0694118,68.5847059 C50.8611765,68.4470588 50.1576471,67.0552941 49.1329412,66.4894118 C47.4964706,65.6482353 45.5235294,66.2447059 43.8564706,65.5258824 C42.9847059,65.1588235 41.9752941,63.3541176 40.8894118,64.2411765 C40.1705882,64.8223529 40.5223529,66 40.4611765,66.7952941 C40.4,67.5905882 39.4823529,69.0282353 40.5988235,69.8541176 C41.1341176,70.2364706 42.0058824,70.1141176 42.6176471,70.4047059 C43.5658824,70.8788235 44.2694118,72.3470588 44.8047059,73.28 C45.1717647,73.8917647 45.0341176,74.1976471 45.2176471,74.8094118 C45.4623529,75.7270588 46.2882353,75.9717647 47.1294118,76.3388235 C48.203999,76.7858139 49.2509575,77.2965254 50.2647059,77.8682353 C49.4082353,78.0313725 48.5364706,78.1690196 47.6494118,78.2811765 C47.5270588,78.1588235 47.42,78.0364706 47.2976471,77.9294118 C46.7653978,77.3875427 46.1092594,76.9833614 45.3858824,76.7517647 C45.0386754,76.6475353 44.677797,76.5959813 44.3152941,76.5988235 C44.0920374,76.5680275 43.8656097,76.5680275 43.6423529,76.5988235 C43.1223529,76.7670588 43.8564706,77.4858824 44.04,77.6235294 C44.2384896,77.7707973 44.4093583,77.9520217 44.5447059,78.1588235 C44.5447059,78.1588235 44.7282353,78.5411765 44.82,78.5411765 C44.1011765,78.5411765 43.3823529,78.5411765 42.6635294,78.5411765 L42.1894118,78.5411765 C41.8277876,78.1947716 41.4151409,77.9059188 40.9658824,77.6847059 C40.5911157,77.5674367 40.2075268,77.4804899 39.8188235,77.4247059 C39.6080769,77.3709734 39.3872172,77.3709734 39.1764706,77.4247059 C38.6849231,77.5986294 38.1684011,77.6916034 37.6470588,77.7 C37.35414,77.7584608 37.0898429,77.9148815 36.8976471,78.1435294 L36.0870588,78.0058824 C34.4059968,77.7168484 32.7456018,77.3183536 31.1164706,76.8129412 C30.3211765,76.5682353 29.5870588,76.2929412 28.7458824,75.9870588 L28.3329412,75.9411765 C28.2105882,75.9411765 27.9505882,75.8494118 28.1035294,75.6964706 C28.2564706,75.5435294 29.6329412,75.2376471 29.9082353,75.0541176 C30.1835294,74.8705882 29.6023529,74.4729412 29.4341176,74.3352941 L28.4705882,73.4941176 C27.8661014,72.9960444 27.2272639,72.5411921 26.5588235,72.1329412 C25.8378123,71.7974878 25.0419934,71.6551891 24.2494118,71.72 C23.8976471,71.72 23.3011765,72.1941176 23.2705882,72.5 C23.24,72.8058824 23.6529412,73.3564706 24.0047059,73.5552941 C24.8152941,73.9988235 26.0388235,74.06 26.5129412,74.7023529 C26.7882353,75.0847059 26.7270588,75.1917647 26.4211765,75.0541176 C23.5008694,73.6866988 20.7624851,71.9604378 18.2694118,69.9152941 C18.6361787,70.0236637 19.0089727,70.1104788 19.3858824,70.1752941 C20.0577254,70.3049285 20.748157,70.3049285 21.42,70.1752941 C21.9751307,70.0311993 22.4953704,69.7762819 22.9494118,69.4258824 C23.0564706,69.4258824 22.9494118,68.7682353 22.8270588,68.6305882 C22.1235294,68.0341176 21.2976471,67.5141176 20.6094118,66.9635294 C19.08,65.8011765 17.4435294,64.6694118 15.8988235,63.4917647 C15.5677219,63.1838839 15.3248451,62.793169 15.1952941,62.36 C14.9728473,61.0813868 14.6139327,59.8303133 14.1247059,58.6282353 C13.3905882,57.5882353 11.6470588,57.5882353 10.6223529,57.0529412 C9.26707955,56.5023261 8.37060447,55.1967214 8.34352941,53.7341176 C8.34352941,52.8011765 8.45058824,52.8776471 9.21529412,53.3823529 C9.98,53.8870588 10.2094118,54.2847059 10.7447059,54.6976471 C12.6717647,55.9976471 15.5623529,56.4564706 16.2505882,58.8423529 C16.4647059,59.6070588 16.5717647,60.9376471 17.78,60.6776471 C18.9882353,60.4176471 18.6058824,58.3070588 18.2694118,57.4505882 C17.7952941,56.1658824 16.2811765,55.9211765 15.8070588,54.8964706 C15.3329412,53.8717647 16.2964706,52.7705882 15.6082353,51.6388235 C15.0074656,50.8489699 14.2398027,50.2014175 13.36,49.7423529 C11.1923598,48.4308385 8.66614951,47.8367509 6.14117647,48.0447059 C5.49882353,48.0447059 5.14705882,48.2894118 5.02470588,48.6870588 C3.16483542,40.7087865 3.87685085,32.3466203 7.05882353,24.7976471 C7.28823529,25.8070588 7.50235294,26.8317647 7.70117647,27.8564706 C7.66101716,28.644449 7.50645805,29.4223965 7.24235294,30.1658824 C7.07411765,31.2364706 6.92117647,32.3070588 6.75294118,33.3776471 C6.67647059,33.9894118 6.43176471,34.5552941 6.32470588,35.1670588 C6.21764706,35.7788235 6.66117647,36.4823529 7.24235294,35.9011765 C7.57882353,35.58 7.50235294,34.3717647 7.86941176,34.2341176 C8.26569007,34.112981 8.5904272,33.8267452 8.76035219,33.4488086 C8.93027718,33.070872 8.92886238,32.6379943 8.75647059,32.2611765 C8.23647059,30.7317647 8.92470588,29.2023529 9.01647059,27.6729412 C9.12352941,25.8988235 9.46,24.14 9.68941176,22.3811765 C9.74278654,21.9651174 9.77342031,21.5464559 9.78117647,21.1270588 C9.7892239,20.6442026 9.74305256,20.1619686 9.64352941,19.6894118 C10.690023,17.9576128 11.8713247,16.3109499 13.1764706,14.7647059 C13.6214003,15.1284262 14.2609526,15.1284262 14.7058824,14.7647059 C15.2411765,14.2752941 14.9811765,13.3423529 14.9811765,12.6541176 C14.9811765,12.4705882 15.6541176,11.9811765 15.7764706,11.8588235 L16.6482353,11.0329412 C17.2447059,10.4976471 17.8411765,9.99294118 18.4682353,9.50352941 C19.0952941,9.01411765 19.7223529,8.52470588 20.3647059,8.06588235 C20.8174974,7.71680967 21.3385438,7.4667074 21.8941176,7.33176471 C22.1562447,7.30593978 22.4166732,7.26508826 22.6741176,7.20941176 C23.4090955,7.11307377 24.128688,6.92289575 24.8152941,6.64352941 C25.4185817,6.23641347 25.8062445,5.57907223 25.8705882,4.85411765 C26.8035294,4.41058824 27.7517647,3.99764706 28.7305882,3.61529412 M77.4882353,46.0258824 C77.4882353,46.5917647 78.6352941,46.0258824 79.0176471,45.9494118 C79.6141555,45.6916993 80.1390415,45.2927859 80.5470588,44.7870588 C80.8323085,44.3296644 80.9710469,43.7960551 80.9447059,43.2576471 C80.8223529,42.7223529 80.3329412,42.8141176 79.8741176,42.7988235 C78.8952941,42.7988235 78.9564706,43.6247059 79.0176471,44.3282353 C79.0164807,44.5227913 78.9396963,44.7092677 78.8035294,44.8482353 C78.4823529,45.1388235 77.6564706,45.5211765 77.5952941,46.0105882 M17.3058824,13.4647059 C17.3058824,13.6635294 17.9941176,14.0458824 18.4070588,14.0764706 C19.5538483,14.2402617 20.7235013,14.0648138 21.7717647,13.5717647 C22.2623628,13.3098789 22.7025351,12.9629196 23.0717647,12.5470588 C23.4030662,12.1549574 23.6760737,11.7171153 23.8823529,11.2470588 C23.8823529,11.1094118 24.1576471,10.7270588 24.0047059,10.5894118 C23.8517647,10.4517647 23.2552941,10.6964706 23.0717647,10.7576471 C22.3835294,10.9717647 21.6494118,11.0023529 20.9458824,11.1705882 C19.9211765,11.4305882 18.9729412,11.9047059 17.8870588,12.1952941 C17.5658824,12.2870588 17.2752941,13.0211765 17.26,13.4647059 M20.5482353,16.3858824 C20.5482353,15.8811765 19.9364706,16.1870588 19.7070588,16.2176471 C19.0952941,16.2941176 18.5141176,15.9729412 17.8870588,16.2176471 C17.5924518,16.3083335 17.3280954,16.4775216 17.1223529,16.7070588 C16.9388235,16.9058824 16.4341176,17.6552941 16.8929412,17.7776471 C17.0611765,17.7776471 17.3670588,17.64 17.5505882,17.6247059 C17.7341176,17.6094118 18.1470588,17.6247059 18.4376471,17.6247059 C18.8083251,17.6056775 19.1695455,17.5009759 19.4929412,17.3188235 C19.7376471,17.1658824 20.3494118,16.86 20.5176471,16.5235294 C20.5242776,16.4881511 20.5242776,16.4518489 20.5176471,16.4164706 M13.2223529,33.24 C12.7068462,33.9402216 12.2417531,34.6761931 11.8305882,35.4423529 C11.6470588,35.8858824 11.7388235,36.9717647 11.9682353,36.9717647 C12.9204357,37.2902823 13.9054581,37.5006256 14.9047059,37.5988235 C15.2110303,37.5620997 15.4739312,37.3634635 15.5929412,37.0788235 C15.9294118,35.4423529 16.1741176,33.76 16.5105882,32.1235294 C16.6635294,31.4505882 16.9235294,29.5541176 17.8105882,29.4929412 C18.1359121,30.5966117 18.3158619,31.7380079 18.3458824,32.8882353 C18.3458824,33.8976471 18.3458824,34.9376471 18.3458824,35.9470588 C18.4654549,36.3865272 18.8087669,36.7298392 19.2482353,36.8494118 C21.6494118,37.1094118 22.3070588,34.7388235 23.1635294,33.2705882 C24.8611765,30.5176471 21.5423529,29.0341176 19.3552941,27.8564706 C17.4894118,26.8776471 16.4952941,27.3364706 15.5164706,29.2176471 C14.7976471,30.5788235 13.9870588,31.8941176 13.1611765,33.2247059 M12.0447059,21.1729412 C11.9659237,21.6955476 12.1625429,22.2217933 12.5647059,22.5647059 C12.976882,22.8962843 13.4886803,23.0794542 14.0176471,23.0847059 C14.66,23.0847059 14.4917647,22.2741176 14.4764706,21.8152941 C14.4764706,21.1117647 14.4,20.4082353 14.3541176,19.7047059 C14.3616606,19.1628288 14.3309964,18.621094 14.2623529,18.0835294 C14.2300546,17.7789972 14.0288884,17.5186645 13.7423529,17.4105882 C13.2376471,17.2117647 13.1,17.4105882 12.7176471,17.7164706 C12.3563475,17.9904129 12.0891205,18.3698753 11.9529412,18.8023529 C11.7847059,19.5517647 12.1364706,20.3317647 12.0447059,21.1729412 M10.6835294,30.4717647 C10.6835294,30.9917647 10.5,32.3682353 11.4941176,32.2764706 C11.8917647,32.2764706 12.06,31.8329412 12.1976471,31.5117647 C12.2529646,31.3265751 12.293871,31.137383 12.32,30.9458824 C12.4226599,30.5643561 12.5880533,30.2025582 12.8094118,29.8752941 C13.2915966,29.270992 13.6548708,28.580771 13.88,27.8411765 C14.0598897,26.956817 13.9637913,26.0385433 13.6047059,25.2105882 C13.4058824,24.7976471 12.5188235,24.5223529 12.0752941,24.4305882 C11.6317647,24.3388235 11.6470588,24.3388235 11.4941176,24.5376471 C11.3107797,24.9556817 11.1921654,25.3991962 11.1423529,25.8529412 C10.9613657,26.7350899 10.8488734,27.6299149 10.8058824,28.5294118 C10.7600234,29.1964677 10.7600234,29.8658853 10.8058824,30.5329412 M49.8823529,61.1823529 C49.7294118,60.3717647 49.3164706,60.2494118 48.5670588,59.9129412 C47.4811765,59.4235294 45.8141176,58.3835294 45.7529412,57.0682353 C45.7529412,56.3341176 45.9517647,56.2882353 46.5788235,56.5023529 C46.9221618,56.6243817 47.2465424,56.7942953 47.5423529,57.0070588 C47.7717647,57.1752941 48.0164706,57.5117647 48.3223529,57.5270588 C48.8882353,57.5270588 48.3223529,56.2117647 48.3223529,55.9976471 C48.2038506,55.361068 47.820135,54.8049584 47.2670588,54.4682353 C46.5788235,54.0705882 45.4317647,54.0247059 45.5694118,52.9388235 C45.7529412,51.4094118 47.6341176,52.4647059 48.6282353,52.4035294 C49.2094118,52.4035294 48.8270588,48.7176471 48.6282353,48.3352941 C48.4294118,47.9529412 47.9552941,47.8917647 47.4505882,47.8 C46.3952941,47.5858824 43.1070588,45.9341176 42.2352941,47.0964706 C41.8835294,48.8552941 42.6482353,50.0635294 42.9388235,51.6847059 C43.148105,53.3277071 43.2044251,54.9865879 43.1070588,56.64 C42.9569305,58.1394452 43.6909845,59.5896494 44.9882353,60.3564706 C46.0915041,61.3462951 47.3882894,62.0962433 48.7964706,62.5588235 C49.6376471,62.6505882 50.0811765,62.1305882 49.9129412,61.2282353 M60.2823529,46.4694118 C59.876813,46.1880784 59.4933455,45.8761915 59.1352941,45.5364706 C58.1564706,44.5117647 57.1623529,42.6764706 55.6635294,42.4776471 C54.1647059,42.2788235 53.4152941,43.5329412 52.6047059,44.4658824 C51.7941176,45.3988235 49.8823529,46.6988235 49.8823529,48.32 C50.0720447,49.8105128 50.4365128,51.2735184 50.9682353,52.6788235 C51.4452329,54.8780868 51.6405259,57.1290956 51.5494118,59.3776471 C51.5494118,60.5705882 50.7847059,62.4364706 52.6505882,62.2529412 C54.1035972,61.9717684 55.2094554,60.7855965 55.3882353,59.3164706 C55.5258824,57.94 55.7858824,56.6094118 57.3611765,56.1811765 C58.3094118,55.9364706 60.0376471,56.2882353 60.2823529,54.9117647 C60.5270588,53.5352941 59.1964706,53.1682353 58.0494118,53.2141176 C57.3917647,53.2141176 54.4705882,53.6270588 55.1741176,52.1741176 C55.6696186,51.4473938 56.373387,50.887578 57.1929412,50.5682353 C59.3952941,49.7882353 63.6623529,49.0388235 60.3282353,46.4235294 M69.3211765,42.6611765 C67.9822772,42.1895689 66.6832349,41.6116485 65.4364706,40.9329412 C64.5647059,40.5047059 64.06,40.6882353 63.9070588,41.6364706 C63.8,42.2329412 63.7082353,42.8447059 63.6164706,43.4411765 C63.5247059,44.0376471 63.2188235,44.8482353 63.7388235,45.1847059 C64.1214628,45.2960942 64.5179481,45.3527349 64.9164706,45.3529412 L66.0635294,45.5211765 C68.4341176,45.8576471 70.8047059,46.2247059 73.1905882,46.5305882 C74.6435294,46.7294118 75.3623529,45.9647059 75.0105882,44.7105882 C74.451976,43.5285052 73.2591765,42.7770416 71.9517647,42.7835294 C71.0853943,42.9123405 70.2022098,42.8707789 69.3517647,42.6611765 M64.4117647,32.1847059 C64.2242758,32.0376929 63.9751204,31.9955604 63.749718,32.072753 C63.5243156,32.1499456 63.3532973,32.3359732 63.2952941,32.5670588 C63.2952941,32.7352941 63.5247059,33.0717647 63.5858824,33.24 C63.8358408,34.20685 64.0298878,35.1872981 64.1670588,36.1764706 C64.2945025,36.8873304 64.5879498,37.5580673 65.0235294,38.1341176 C65.6658824,38.9447059 66.9658824,39.2505882 67.8070588,39.6635294 C68.3882353,40 69.8564706,41.1011765 70.5752941,40.8870588 C71.7529412,40.52 71.1564706,39.0517647 70.4070588,38.3635294 C69.9482353,37.9352941 69.1682353,37.8894118 68.6635294,37.4611765 C68.3150032,37.0705644 68.0075082,36.6451963 67.7458824,36.1917647 L67.5470588,35.9623529 C66.7211765,35.1364706 65.6505882,34.7082353 65.0235294,33.6835294 C64.7482353,33.2247059 64.7176471,32.5976471 64.3505882,32.1541176 M62.1176471,16.6 C64.0752941,16.8905882 66.0176471,17.2576471 68.2352941,17.6552941 C68.0823529,17.3188235 68.0364706,16.9823529 67.8376471,16.8294118 C66.5988235,15.8964706 65.3752941,14.9329412 64.06,14.1223529 C61.9494118,12.8223529 61.8270588,12.9141176 61.2611765,15.3152941 C61.0776471,16.0952941 61.2611765,16.4776471 62.1329412,16.6 M55.6176471,31.1752941 C54.8349281,32.8608143 54.269614,34.6389841 53.9352941,36.4670588 C53.7976471,38.1341176 53.5070588,39.2811765 54.9294118,40.4894118 C55.8011765,41.2235294 56.9329412,41.3917647 57.8352941,42.0188235 C58.4776471,42.4623529 58.7835294,43.3647059 59.3647059,43.7470588 C61.5517647,45.0623529 61.7047059,41.4223529 62.1482353,40.0764706 C62.4082353,39.2658824 62.3317647,38.8529412 61.4447059,38.4094118 C60.5493376,37.8466981 59.6864002,37.2339615 58.86,36.5741176 C58.2482353,36.1764706 57.6670588,35.8247059 58.2941176,35.0447059 C58.9211765,34.2647059 60.5117647,35.4729412 60.7105882,33.8058824 C60.7870304,32.9817688 60.7870304,32.1523488 60.7105882,31.3282353 C60.8027676,30.5305829 60.6308477,29.7247086 60.2211765,29.0341176 C59.7429234,28.5910556 59.1952685,28.2293967 58.6,27.9635294 C57.9882353,27.6117647 57.2082353,27.1835294 57.8352941,26.3270588 C58.4623529,25.4705882 59.0894118,25.0423529 60.1141176,25.7458824 C60.5729412,26.0670588 61.5058824,26.4647059 61.6435294,26.2811765 C62.1578641,25.7347343 62.512313,25.0575781 62.6682353,24.3235294 C62.9282353,23.3447059 62.8823529,22.2741176 63.1270588,21.2647059 C63.3717647,20.2552941 63.2188235,19.6435294 61.98,19.5058824 C61.5823529,19.5058824 61.1694118,19.5058824 60.7717647,19.3988235 C59.1352941,19.1082353 58.6764706,19.3988235 58.0647059,20.9282353 C57.7282353,21.8 57.2082353,22.6105882 56.9482353,23.4976471 C56.5811765,24.6447059 55.8776471,26.0211765 56.2294118,26.9541176 C56.8717647,28.6670588 56,29.8141176 55.5105882,31.1752941 M50.0352941,27.7188235 C49.6246451,27.8109478 49.2418956,27.999701 48.9188235,28.2694118 C48.4971659,28.5655718 48.1470577,28.9522586 47.8941176,29.4011765 C47.0325128,30.7844592 46.532857,32.3623196 46.4411765,33.9894118 C46.4411765,35.7635294 47.0070588,37.3388235 46.9305882,39.1129412 C46.9305882,39.74 46.5482353,45.7505882 46.9305882,45.8423529 C48.2611765,46.1329412 48.5670588,46.1023529 49.0411765,44.8329412 C49.5007158,42.9058317 49.6248839,40.9139673 49.4082353,38.9447059 C49.3635809,38.5932487 49.4055862,38.2362035 49.5305882,37.9047059 C49.6426752,37.7525024 49.81611,37.657393 50.0047059,37.6447059 C50.1397485,37.606838 50.2826044,37.606838 50.4176471,37.6447059 C50.5552941,37.7211765 50.5552941,37.92 50.5705882,38.0729412 C50.6163509,38.3309275 50.6163509,38.5949549 50.5705882,38.8529412 C50.5103282,39.4882955 50.4898961,40.1267987 50.5094118,40.7647059 C50.4602521,41.2060828 50.6053746,41.6470318 50.9070588,41.9729412 C51.2771507,42.1703667 51.6985958,42.2503879 52.1152941,42.2023529 C52.6811765,42.2023529 52.7729412,41.0552941 52.8035294,40.5964706 C52.8341176,40.1376471 52.8035294,39.2811765 52.8035294,38.6388235 C52.9564706,37.2776471 53.1858824,35.9164706 53.4458824,34.5552941 C53.8152431,33.2284406 54.0710673,31.8725724 54.2105882,30.5023529 C54.2105882,28.9729412 54.96,27.4435294 55.1282353,25.9141176 C55.3154235,25.1332243 55.3977164,24.3308685 55.3729412,23.5282353 C55.2058514,23.0598771 54.8330564,22.6941108 54.361603,22.535965 C53.8901496,22.3778192 53.3721958,22.4447901 52.9564706,22.7176471 C52.5588235,22.9929412 52.6047059,23.5435294 52.5588235,23.9717647 C52.2756082,25.5749598 52.0917285,27.1941235 52.0082353,28.82 C52.0082353,29.2482353 52.0082353,29.6764706 52.0082353,30.1047059 C52.0960245,31.4068358 51.9981821,32.7148336 51.7176471,33.9894118 C51.6309022,34.4833986 51.3836129,34.9349703 51.0141176,35.2741176 C50.8448597,35.3955838 50.6412614,35.4598781 50.4329412,35.4576471 C50.2978986,35.495515 50.1550426,35.495515 50.02,35.4576471 C49.8517647,35.2894118 50.02,34.8764706 50.02,34.6776471 C50.2494118,33.1482353 50.02,31.7105882 50.1270588,30.2270588 C50.238994,29.4729554 50.2748605,28.7095116 50.2341176,27.9482353 C50.2341176,27.8105882 50.0658824,27.7494118 49.9588235,27.7494118 M37.3258824,30.3341176 C38.0369155,29.7190852 38.6596546,29.0088538 39.1764706,28.2235294 C39.8952941,26.9694118 40.4152941,25.6235294 41.0270588,24.3235294 C41.94781,22.767512 42.7553861,21.1472485 43.4435294,19.4752941 C43.6117647,18.8788235 43.4435294,17.6552941 42.8164706,17.3647059 C42.1894118,17.0741176 41.6388235,17.5788235 41.2870588,17.9764706 C40.6080645,19.0076588 40.0921952,20.1374127 39.7576471,21.3258824 C39.3638202,22.7723154 38.6650388,24.1177304 37.7082353,25.2717647 C36.3790316,26.3926353 35.8696472,28.2118654 36.4235294,29.86 C36.5152941,30.1352941 37.2952941,30.4564706 37.3870588,30.3647059 M40.2317647,35.5188235 C41.4705882,36.4976471 41.2870588,37.9047059 41.4705882,39.3270588 C41.7081997,40.8890598 42.092245,42.4252408 42.6176471,43.9152941 C42.8000874,44.3325705 43.1108223,44.6808079 43.5047059,44.9094118 C43.8258824,45.1541176 44.3,45.5670588 44.7435294,45.5058824 C45.1870588,45.4447059 45.3094118,44.9094118 45.34,44.5117647 C45.34,43.5329412 45.1105882,42.5694118 45.1258824,41.5752941 C45.1258824,39.8470588 45.2482353,38.0729412 45.1258824,36.3447059 C44.8149963,35.029456 44.5851521,33.6963601 44.4376471,32.3529412 C44.5447059,30.8235294 46.3952941,29.08 47.3129412,27.9941176 C48.46,26.6176471 49.2552941,25.0270588 47.94,23.4058824 C47.0376471,22.32 46.2729412,21.1576471 45.34,22.4576471 C44.2994526,24.1082456 43.089787,25.6459562 41.7305882,27.0458824 C40.6754688,28.2555418 39.7142441,29.5439919 38.8552941,30.9 C38.3658824,31.4964706 37.3258824,31.7717647 37.0658824,32.5976471 C36.5611765,34.4329412 39.2835294,34.7541176 40.2164706,35.4882353 M33.2729412,42.2941176 C33.3825942,42.7973388 33.4491099,43.3089985 33.4717647,43.8235294 C33.4717647,45.6894118 33.4717647,47.6317647 33.5635294,49.4823529 C33.7852245,50.8308857 34.1281845,52.1566563 34.5882353,53.4435294 C34.9094118,54.9729412 34.9094118,56.4105882 35.3529412,57.8329412 C35.476462,58.3925251 35.7277131,58.915965 36.0870588,59.3623529 C37.1117647,60.5858824 38.9317647,60.0658824 40.14,61.1058824 C40.9679634,61.84219 41.8526626,62.5121068 42.7858824,63.1094118 C43.0764706,63.2776471 45.6458824,64.5470588 45.8447059,63.7364706 C46.0741176,62.6352941 44.3152941,62.0235294 43.6882353,61.4270588 C43.0611765,60.8305882 42.2658824,59.5917647 41.4094118,58.8882353 C40.7038689,58.4262025 39.9562296,58.0318995 39.1764706,57.7105882 C38.7097369,57.5172639 38.3366879,57.1497009 38.1364706,56.6858824 C38.1061622,56.4318813 38.1061622,56.1751775 38.1364706,55.9211765 C38.1364706,55.6458824 38.0294118,55.5235294 38.3352941,55.5388235 C38.6079347,55.580301 38.8686175,55.6793604 39.1,55.8294118 C39.4721629,56.0226077 39.8612391,56.1813098 40.2623529,56.3035294 C40.6905882,56.4105882 40.6905882,56.0894118 40.7670588,55.7682353 C40.9658334,54.9957189 40.9658334,54.1854576 40.7670588,53.4129412 C40.4996061,52.679815 40.0710368,52.0160552 39.5129412,51.4705882 C39.3371261,51.2833767 39.1301277,51.1281279 38.9011765,51.0117647 C38.1005063,50.7194967 37.410866,50.1848918 36.9282353,49.4823529 C36.8364706,49.2835294 36.6682353,47.5247059 36.9282353,47.5552941 C37.9376471,47.6929412 39.9870588,50.2164706 39.9870588,47.7847059 C39.9870588,46.4847059 38.1976471,45.5211765 37.3717647,44.7258824 C36.5458824,43.9305882 35.3835294,42.6458824 34.3129412,41.6670588 C34.1447059,41.5141176 33.7317647,41.1011765 33.4717647,41.2082353 C33.2117647,41.3152941 33.2270588,42.1870588 33.2729412,42.4623529 M36.1176471,70.0988235 C37.2952941,70.7258824 37.6470588,68.86 37.5552941,68.08 C37.4176471,66.1988235 37.4482353,64.2870588 37.28,62.4058824 C37.28,61.6411765 36.6070588,61.3811765 35.8729412,61.7482353 C34.2304514,63.122773 33.6198256,65.3759821 34.3435294,67.3917647 C34.8788235,68.2329412 35.1235294,69.5635294 36.0717647,70.0835294 M31.8352941,69.1658824 C31.6163384,69.0056104 31.4381981,68.7960335 31.3152941,68.5541176 C30.4109515,67.2738611 29.5836064,65.9409163 28.8376471,64.5623529 C28.2619161,63.6246036 27.8676168,62.5869739 27.6752941,61.5035294 C27.6752941,61.0141176 28.0882353,60.6929412 27.9047059,60.1576471 C27.5835294,59.24 26.4823529,59.3164706 25.7788235,58.9647059 C24.2494118,58.1388235 24.8917647,56.3647059 23.8670588,55.0952941 C22.8423529,53.8258824 20.9917647,52.8929412 20.0588235,51.3482353 C19.0212103,49.7955589 18.1787897,48.1209911 17.5505882,46.3623529 C17.1311087,45.1789674 16.8738679,43.9442115 16.7858824,42.6917647 C16.6657094,41.6127406 16.0642214,40.6458627 15.1494118,40.0611765 C13.1513758,38.860219 10.9091571,38.123266 8.58823529,37.9047059 C7.39529412,37.6905882 6.56941176,38.44 5.80470588,39.4341176 C4.64235294,40.8717647 4.91764706,42.3858824 5.08588235,44.0223529 C5.19294118,44.9094118 5.46823529,45.4141176 6.44705882,45.4752941 C7.27593772,45.4953875 8.09861727,45.6239312 8.89411765,45.8576471 C11.0295028,46.6055224 13.0559053,47.6341531 14.92,48.9164706 C15.7265455,49.3684965 16.4984654,49.8797018 17.2294118,50.4458824 C18.3611765,51.5011765 17.6117647,52.3117647 17.8564706,53.5047059 C18.1011765,54.6976471 19.3858824,55.7223529 19.9976471,56.9611765 C20.7929412,58.6741176 20.4258824,60.6776471 21.0070588,62.4364706 C21.5552651,63.9314928 22.5412675,65.2266202 23.8364706,66.1529412 C24.9376471,67.04 25.9470588,68.0188235 27.0023529,68.9517647 C27.7211765,69.5941176 28.1494118,70.6341176 28.9141176,71.1694118 C29.4035294,71.5211765 30.0458824,71.3070588 30.5352941,71.5823529 C31.0247059,71.8576471 31.3611765,72.5917647 31.7894118,73.1117647 C32.8534586,74.3384872 34.2034739,75.2840232 35.72,75.8647059 C36.5036343,76.0359576 37.3230366,75.9048533 38.0141176,75.4976471 C38.3505882,75.3294118 38.7023529,75.1611765 39.0235294,74.9776471 C39.3447059,74.7941176 39.7729412,74.4576471 40.1858824,74.7023529 C40.5815805,74.9511334 41.0084102,75.1465494 41.4552941,75.2835294 C41.6256535,75.3594319 41.8202289,75.3594319 41.9905882,75.2835294 C42.1741176,75.2835294 42.3576471,75.1 42.5564706,75.1611765 C42.7552941,75.2223529 43.0764706,75.7423529 43.3517647,75.3752941 C43.6270588,75.0082353 43.3517647,74.7329412 43.3517647,74.5035294 C43.2217771,74.0865542 42.9905869,73.708243 42.6788235,73.4023529 C42.2192794,72.7775986 41.4614501,72.4453196 40.6905882,72.5305882 C39.62,72.7447059 39.6658824,73.8 38.9317647,74.4117647 C38.1976471,75.0235294 36.5305882,74.2588235 35.8729412,73.5552941 C34.5882353,72.0258824 33.8388235,70.1905882 31.9576471,69.2729412 M25.8858824,34.2494118 C24.1882353,36.2988235 21.7105882,37.0329412 19.4929412,38.18 C17.9635294,38.9752941 17.5352941,39.5258824 17.8870588,41.2388235 C18.0479948,42.2461878 18.2727611,43.2423113 18.56,44.2211765 C18.9192059,45.043978 19.3436988,45.8367057 19.8294118,46.5917647 C20.5547302,47.7909894 21.4002669,48.9132473 22.3529412,49.9411765 C22.9989888,50.5946313 23.601831,51.2894325 24.1576471,52.0211765 C24.8305882,53.1376471 26.2988235,54.1164706 26.62,55.3552941 C26.7423529,55.8752941 26.62,57.5117647 27.6294118,57.3741176 C28.3329412,57.3741176 28.3329412,56.0588235 28.2870588,55.5541176 C28.18,54.7282353 28.2870588,53.8258824 28.2870588,53.0305882 C28.1494118,51.8529412 27.1552941,51.2411765 26.6658824,50.2776471 C26.2150143,49.0261136 25.977207,47.707834 25.9623529,46.3776471 C25.8107672,44.8536731 25.4558504,43.35685 24.9070588,41.9270588 C24.6623529,41.3 24.54,41.0094118 25.0752941,40.5505882 C25.3882323,40.2103355 25.8629781,40.0698275 26.3106925,40.1849541 C26.7584068,40.3000806 27.1064843,40.6521717 27.2164706,41.1011765 C27.8791001,43.0327701 28.240198,45.0549183 28.2870588,47.0964706 C28.1647059,48.5188235 27.2929412,49.5741176 28.96,50.4 C29.9388235,50.8894118 30.1529412,50.8435294 30.3211765,51.9294118 C30.7035294,54.3764706 29.7705882,56.64 30,59.0258824 C30.127614,60.2350557 30.4585429,61.41399 30.9788235,62.5129412 C31.3458824,63.2317647 31.4223529,63.2317647 31.9117647,62.5129412 C32.5966915,61.3698483 32.9710179,60.0676142 32.9976471,58.7352941 C32.9976471,58.2305882 32.9976471,57.7411765 32.9976471,57.2058824 C33.074545,55.5555152 32.9512948,53.9019086 32.6305882,52.2811765 C32.467298,51.511803 32.1499439,50.7834492 31.6976471,50.14 C31.1011765,49.3141176 30.4282353,48.6105882 30.7647059,47.4941176 C31.1412408,46.0398943 31.4272793,44.563731 31.6211765,43.0741176 C31.6574663,42.8265799 31.708538,42.5814357 31.7741176,42.34 C32.0647059,41.2694118 31.5141176,40.9023529 30.6729412,40.4588235 C29.5258824,39.8470588 29.48,39.3882353 29.1435294,38.1494118 C28.8070588,36.9105882 27.14,32.5823529 25.8094118,34.1882353 M26.4823529,19.9952941 C26.2879971,18.6919556 26.0225026,17.4002225 25.6870588,16.1258824 C25.4576471,15.3458824 24.9070588,14.7647059 24.02,15.6517647 C23.4235154,16.2642168 22.7734776,16.8221232 22.0776471,17.3188235 C21.2364706,17.8847059 20.38,18.42 19.5082353,18.94 C19.0124656,19.1854187 18.5323349,19.4612384 18.0705882,19.7658824 C17.6258702,20.0187405 17.3735564,20.5113532 17.4282353,21.02 C17.5246503,21.8882178 17.5604233,22.7621008 17.5352941,23.6352941 C17.3517647,25.1647059 17.5352941,25.3329412 18.9576471,25.8070588 C20.2524947,26.2089645 21.4949463,26.763447 22.6588235,27.4588235 C23.2597372,27.9267187 23.720114,28.5511378 23.9894118,29.2635294 C24.3105882,29.9517647 24.7694118,30.2117647 25.3352941,29.7988235 C26.1622259,29.3705987 26.5421446,28.3946004 26.2223529,27.52 C26.1377877,27.2251595 26.1377877,26.9124875 26.2223529,26.6176471 C26.6133102,25.590698 26.8902656,24.5239069 27.0482353,23.4364706 C26.9780223,22.2730515 26.7883982,21.1199319 26.4823529,19.9952941" id="Shape" fill="#4FC5F2" fill-rule="nonzero"></path>
        <path d="M106.363529,44.8176471 C106.46549,42.9721569 106.521569,38.2309804 106.531765,30.5941176 C106.531765,26.5105882 106.531765,23.7117647 106.363529,22.2129412 C101.652941,22.4117647 98.9764706,22.5188235 98.3647059,22.5188235 C97.9409221,22.5580388 97.5160774,22.4558609 97.1564706,22.2282353 C96.8870388,21.9469341 96.7579411,21.5596413 96.8047059,21.1729412 C96.8304702,20.3328817 97.0228185,19.5063039 97.3705882,18.7411765 C100.600167,19.4379412 103.902256,19.7409323 107.204706,19.6435294 L119.684706,19.6435294 C120.111364,19.6041398 120.539566,19.7004851 120.908235,19.9188235 C121.172173,20.2034091 121.300399,20.5880866 121.26,20.9741176 C121.254671,21.9234448 120.967196,22.8497512 120.434118,23.6352941 C117.671379,22.5922715 114.728879,22.1087865 111.777647,22.2129412 L111.058824,22.2129412 C110.951765,23.7423529 110.890588,26.5870588 110.890588,30.8388235 C110.890588,38.3176471 110.890588,42.9670588 111.058824,44.8176471 L113.903529,44.8176471 C114.060267,45.1853859 114.143402,45.5802813 114.148235,45.98 C114.169287,46.2308437 114.098645,46.4808097 113.949412,46.6835294 C113.750128,46.8396531 113.497405,46.9110745 113.245882,46.8823529 L103.518824,46.8823529 C103.352292,46.4849302 103.264012,46.0591072 103.258824,45.6282353 C103.234011,45.4052074 103.306457,45.1822975 103.457647,45.0164706 C103.662672,44.8720114 103.910867,44.8018692 104.161176,44.8176471 L106.363529,44.8176471 Z M124.349412,19.6435294 L132.745882,19.6435294 C132.90416,20.0054068 132.987406,20.3956238 132.990588,20.7905882 C133.050719,21.0436598 132.97532,21.3098116 132.791389,21.4937422 C132.607459,21.6776728 132.341307,21.7530719 132.088235,21.6929412 L130.681176,21.6929412 C130.589412,23.5486275 130.543529,26.7094118 130.543529,31.1752941 L142.365882,31.1752941 C142.365882,26.7094118 142.365882,23.5282353 142.212941,21.6929412 L140.117647,21.6929412 C139.962458,21.2926908 139.879602,20.8680551 139.872941,20.4388235 C139.848129,20.2157956 139.920574,19.9928857 140.071765,19.8270588 C140.271849,19.6855518 140.516023,19.6204389 140.76,19.6435294 L149.171765,19.6435294 C149.318143,20.0085156 149.395915,20.3973788 149.401176,20.7905882 C149.429898,21.0421113 149.358477,21.2948334 149.202353,21.4941176 C149.008542,21.6493404 148.760847,21.7208966 148.514118,21.6929412 L146.923529,21.6929412 C146.831765,23.5435294 146.770588,26.5870588 146.770588,30.8694118 C146.770588,38.3482353 146.770588,42.9976471 146.938824,44.8482353 L149.202353,44.8482353 C149.347603,45.2188834 149.4253,45.6125484 149.431765,46.0105882 C149.460486,46.2621113 149.389065,46.5148334 149.232941,46.7141176 C149.03913,46.8693404 148.791435,46.9408966 148.544706,46.9129412 L140.117647,46.9129412 C139.962458,46.5126908 139.879602,46.0880551 139.872941,45.6588235 C139.848129,45.4357956 139.920574,45.2128857 140.071765,45.0470588 C140.269784,44.9001394 140.514139,44.8295479 140.76,44.8482353 L142.182353,44.8482353 C142.274118,43.3188235 142.335294,39.5870588 142.335294,33.7752941 L130.543529,33.7752941 C130.543529,39.5717647 130.543529,43.2729412 130.696471,44.8482353 L132.745882,44.8482353 C132.902619,45.2159741 132.985755,45.6108696 132.990588,46.0105882 C133.050719,46.2636598 132.97532,46.5298116 132.791389,46.7137422 C132.607459,46.8976728 132.341307,46.9730719 132.088235,46.9129412 L123.707059,46.9129412 C123.547565,46.5133697 123.459559,46.0888695 123.447059,45.6588235 C123.426316,45.4334976 123.504446,45.2102691 123.661176,45.0470588 C123.859196,44.9001394 124.103551,44.8295479 124.349412,44.8482353 L125.970588,44.8482353 C126.072549,43.0027451 126.123529,38.2615686 126.123529,30.6247059 C126.123529,26.5411765 126.123529,23.5741176 125.970588,21.7235294 L123.707059,21.7235294 C123.547565,21.3239579 123.459559,20.8994577 123.447059,20.4694118 C123.426316,20.2440858 123.504446,20.0208573 123.661176,19.8576471 C123.861261,19.7161401 124.105435,19.6510271 124.349412,19.6741176 L124.349412,19.6435294 Z M154.325882,19.6435294 L171.409412,19.6435294 C171.939649,19.5988159 172.471365,19.7104762 172.938824,19.9647059 C173.263611,20.3022743 173.415785,20.7700695 173.351765,21.2341176 C173.332819,22.1224944 173.073866,22.9891947 172.602353,23.7423529 C169.264367,22.5979595 165.743831,22.0794713 162.217647,22.2129412 L160.489412,22.2129412 C160.397647,23.7423529 160.351765,26.7094118 160.367059,31.1752941 L170.797647,31.1752941 C170.969462,31.7038064 171.057198,32.256026 171.057647,32.8117647 C171.092085,33.0779677 171.020694,33.3470552 170.858824,33.5611765 C170.62727,33.7092978 170.352131,33.7740364 170.078824,33.7447059 L160.351765,33.7447059 C160.351765,39.4952941 160.397647,43.0180392 160.489412,44.3129412 L163.272941,44.3129412 C166.664116,44.440738 170.050987,43.9642974 173.275294,42.9058824 C173.689838,43.5941663 173.911699,44.3812473 173.917647,45.1847059 C173.94466,45.6820262 173.727822,46.1613517 173.336471,46.4694118 C172.603034,46.8171195 171.789155,46.9598126 170.981176,46.8823529 L153.683529,46.8823529 C153.522583,46.4778888 153.434556,46.0481118 153.423529,45.6129412 C153.407276,45.3927756 153.485081,45.1760341 153.637647,45.0164706 C153.837732,44.8749636 154.081905,44.8098506 154.325882,44.8329412 L155.855294,44.8329412 C155.957255,42.9670588 156.008235,38.2156863 156.008235,30.5788235 C156.008235,26.4952941 156.008235,23.5282353 155.855294,21.6776471 L153.683529,21.6776471 C153.524035,21.2780755 153.436029,20.8535754 153.423529,20.4235294 C153.402786,20.1982035 153.480916,19.9749749 153.637647,19.8117647 C153.837732,19.6702577 154.081905,19.6051448 154.325882,19.6282353 L154.325882,19.6435294 Z M195.252941,44.8176471 L198.112941,44.8176471 C198.269678,45.1853859 198.352814,45.5802813 198.357647,45.98 C198.378699,46.2308437 198.308056,46.4808097 198.158824,46.6835294 C197.959539,46.8396531 197.706817,46.9110745 197.455294,46.8823529 L188.08,46.8823529 C187.909307,46.4856274 187.815872,46.0599787 187.804706,45.6282353 C187.783963,45.4029093 187.862093,45.1796808 188.018824,45.0164706 C188.218034,44.8719742 188.461482,44.8016449 188.707059,44.8176471 L190.588235,44.8176471 C190.700392,42.9721569 190.756471,38.2309804 190.756471,30.5941176 C190.756471,26.5105882 190.756471,23.5435294 190.588235,21.6929412 L188.278824,21.6929412 C188.123634,21.2926908 188.040779,20.8680551 188.034118,20.4388235 C188.013375,20.2134976 188.091505,19.9902691 188.248235,19.8270588 C188.446254,19.6801394 188.69061,19.6095479 188.936471,19.6282353 L197.531765,19.6282353 C201.6,19.6282353 204.475294,20.1941176 206.188235,21.3105882 C207.940856,22.4794989 208.92845,24.5014365 208.772941,26.6023529 C208.772941,30.2882353 206.555294,32.8117647 202.150588,34.1423529 C203.366393,34.5157862 204.435579,35.258871 205.209412,36.2682353 C206.174759,37.67805 206.989793,39.1850944 207.641176,40.7647059 C208.126672,42.0464284 208.818988,43.2398991 209.690588,44.2976471 C210.300239,44.7542133 211.058296,44.9669055 211.816471,44.8941176 C212.107059,45.8576471 212.061176,46.5 211.724706,46.8517647 C210.944893,47.2921941 210.043764,47.4692016 209.155294,47.3564706 C207.983173,47.4489902 206.807267,47.2327922 205.744706,46.7294118 C205.041176,46.3164706 204.322353,44.8635294 203.572941,42.34 C203.111842,40.4342135 202.303004,38.629882 201.187059,37.0176471 C200.284817,35.9685911 198.943375,35.4025816 197.562353,35.4882353 C196.73812,35.4873725 195.914998,35.5487232 195.1,35.6717647 C195.1,40.2701961 195.15098,43.3290196 195.252941,44.8482353 L195.252941,44.8176471 Z M195.1,32.9188235 L196.705882,32.9188235 C198.540208,33.0414991 200.370046,32.6212748 201.967059,31.7105882 C203.15703,30.8919338 203.834993,29.5128301 203.756471,28.0705882 C203.895579,26.5279476 203.320815,25.0065126 202.196471,23.9411765 C200.867361,22.9795575 199.245603,22.5092477 197.608235,22.6105882 C196.828769,22.6026583 196.050329,22.6692354 195.283529,22.8094118 C195.176471,23.9564706 195.130588,26.6482353 195.130588,30.9 L195.1,32.9188235 Z M215.441176,19.6435294 L232.524706,19.6435294 C233.055164,19.5951113 233.587946,19.7069955 234.054118,19.9647059 C234.344706,20.1635294 234.482353,20.5917647 234.482353,21.2341176 C234.457305,22.123695 234.193154,22.9901104 233.717647,23.7423529 C230.385325,22.5963957 226.869505,22.0778382 223.348235,22.2129412 L221.604706,22.2129412 C221.512941,23.7423529 221.467059,26.7094118 221.482353,31.1752941 L231.882353,31.1752941 C232.054168,31.7038064 232.141904,32.256026 232.142353,32.8117647 C232.169121,33.0774116 232.098464,33.3437365 231.943529,33.5611765 C231.711976,33.7092978 231.436837,33.7740364 231.163529,33.7447059 L221.482353,33.7447059 C221.482353,39.4952941 221.528235,43.0180392 221.62,44.3129412 L224.418824,44.3129412 C227.809882,44.4384642 231.196354,43.9620797 234.421176,42.9058824 C234.83572,43.5941663 235.057582,44.3812473 235.063529,45.1847059 C235.090542,45.6820262 234.873705,46.1613517 234.482353,46.4694118 C233.742966,46.8155055 232.924626,46.958055 232.111765,46.8823529 L214.798824,46.8823529 C214.637877,46.4778888 214.54985,46.0481118 214.538824,45.6129412 C214.516283,45.3919634 214.595006,45.1726621 214.752941,45.0164706 C214.953026,44.8749636 215.197199,44.8098506 215.441176,44.8329412 L216.970588,44.8329412 C217.062353,42.9670588 217.108235,38.2156863 217.108235,30.5788235 C217.108235,26.5003922 217.062353,23.5333333 216.970588,21.6776471 L214.86,21.6776471 C214.700506,21.2780755 214.6125,20.8535754 214.6,20.4235294 C214.572614,20.1974345 214.651714,19.9714333 214.814118,19.8117647 C215.014202,19.6702577 215.258376,19.6051448 215.502353,19.6282353 L215.441176,19.6435294 Z M239.345882,19.6435294 L256.429412,19.6435294 C256.959649,19.5988159 257.491365,19.7104762 257.958824,19.9647059 C258.283611,20.3022743 258.435785,20.7700695 258.371765,21.2341176 C258.34548,22.1213258 258.087089,22.9861456 257.622353,23.7423529 C254.284367,22.5979595 250.763831,22.0794713 247.237647,22.2129412 L245.494118,22.2129412 C245.402353,23.7423529 245.371765,26.7094118 245.387059,31.1752941 L255.817647,31.1752941 C255.989462,31.7038064 256.077198,32.256026 256.077647,32.8117647 C256.112085,33.0779677 256.040694,33.3470552 255.878824,33.5611765 C255.64727,33.7092978 255.372131,33.7740364 255.098824,33.7447059 L245.356471,33.7447059 C245.356471,39.4952941 245.402353,43.0180392 245.494118,44.3129412 L248.292941,44.3129412 C251.684066,44.4397614 255.070766,43.9633449 258.295294,42.9058824 C258.709838,43.5941663 258.931699,44.3812473 258.937647,45.1847059 C258.96466,45.6820262 258.747822,46.1613517 258.356471,46.4694118 C257.623034,46.8171195 256.809155,46.9598126 256.001176,46.8823529 L238.703529,46.8823529 C238.542583,46.4778888 238.454556,46.0481118 238.443529,45.6129412 C238.427276,45.3927756 238.505081,45.1760341 238.657647,45.0164706 C238.857732,44.8749636 239.101905,44.8098506 239.345882,44.8329412 L240.875294,44.8329412 C240.967059,42.9670588 241.028235,38.2105882 241.028235,30.5788235 C241.028235,26.4952941 241.028235,23.5282353 240.875294,21.6776471 L238.764706,21.6776471 C238.605212,21.2780755 238.517206,20.8535754 238.504706,20.4235294 C238.483963,20.1982035 238.562093,19.9749749 238.718824,19.8117647 C238.918908,19.6702577 239.163082,19.6051448 239.407059,19.6282353 L239.345882,19.6435294 Z M263.250588,19.6435294 L280.334118,19.6435294 C280.864466,19.5969864 281.396705,19.7087567 281.863529,19.9647059 C282.188317,20.3022743 282.340491,20.7700695 282.276471,21.2341176 C282.257525,22.1224944 281.998572,22.9891947 281.527059,23.7423529 C278.189072,22.5979595 274.668537,22.0794713 271.142353,22.2129412 L269.398824,22.2129412 C269.317255,23.7117647 269.276471,26.8980392 269.276471,31.7717647 L279.125882,31.7717647 C279.297698,32.300277 279.385433,32.8524966 279.385882,33.4082353 C279.423769,33.6746531 279.352031,33.9450489 279.187059,34.1576471 C278.955505,34.3057684 278.680366,34.370507 278.407059,34.3411765 L269.230588,34.3411765 C269.230588,39.8062745 269.271373,43.2984314 269.352941,44.8176471 L272.58,44.8176471 C272.729544,45.1876151 272.812391,45.5811416 272.824706,45.98 C272.849152,46.2335951 272.772165,46.48655 272.610588,46.6835294 C272.418439,46.8419311 272.169371,46.9138839 271.922353,46.8823529 L262.531765,46.8823529 C262.372271,46.4827814 262.284264,46.0582813 262.271765,45.6282353 C262.251022,45.4029093 262.329152,45.1796808 262.485882,45.0164706 C262.683901,44.8695512 262.928257,44.7989596 263.174118,44.8176471 L264.703529,44.8176471 C264.795294,42.9721569 264.841176,38.2309804 264.841176,30.5941176 C264.841176,26.5156863 264.795294,23.5486275 264.703529,21.6929412 L262.577647,21.6929412 C262.418153,21.2933697 262.330147,20.8688695 262.317647,20.4388235 C262.296904,20.2134976 262.375034,19.9902691 262.531765,19.8270588 C262.731849,19.6855518 262.976023,19.6204389 263.22,19.6435294 L263.250588,19.6435294 Z M106.791765,60.0964706 L105.996471,60.0964706 C105.940051,59.9605074 105.908952,59.8153786 105.904706,59.6682353 C105.898156,59.5891786 105.926027,59.5111389 105.981176,59.4541176 C106.059854,59.4234051 106.147205,59.4234051 106.225882,59.4541176 L108.978824,59.4541176 C110.176752,59.3378187 111.383519,59.5548251 112.465882,60.0811765 C113.099333,60.5827903 113.433665,61.3725056 113.352941,62.1764706 C113.399876,63.0802378 112.999628,63.9493479 112.282353,64.5011765 C111.21191,65.1468183 109.964148,65.4359992 108.718824,65.3270588 L108.367059,65.3270588 C108.367059,66.7494118 108.367059,67.6976471 108.367059,68.1717647 L109.529412,68.1717647 C109.588822,68.3013856 109.620097,68.4421225 109.621176,68.5847059 C109.649419,68.6585689 109.649419,68.7402547 109.621176,68.8141176 C109.552896,68.8709026 109.464935,68.8983905 109.376471,68.8905882 L105.950588,68.8905882 C105.892315,68.7498513 105.86118,68.5993646 105.858824,68.4470588 C105.832483,68.3834016 105.832483,68.3118925 105.858824,68.2482353 C105.929161,68.195343 106.015591,68.1683336 106.103529,68.1717647 L106.730588,68.1717647 C106.730588,67.5447059 106.730588,65.8929412 106.730588,63.2623529 C106.852941,61.7635294 106.822353,60.7388235 106.791765,60.0964706 Z M108.932941,64.3941176 C109.669651,64.4566335 110.408571,64.3024705 111.058824,63.9505882 C111.517964,63.5841752 111.75037,63.0031583 111.670588,62.4211765 C111.697584,61.8527972 111.487058,61.2987801 111.089412,60.8917647 C110.557729,60.4833874 109.890846,60.2920684 109.223529,60.3564706 C108.959026,60.3313505 108.692738,60.3313505 108.428235,60.3564706 C108.428235,60.7541176 108.428235,61.6870588 108.428235,63.1552941 L108.428235,64.2870588 L108.932941,64.3941176 Z M120.235294,67.9270588 L120.831765,67.9270588 C121.968442,67.9641499 123.102635,67.798423 124.181176,67.4376471 C124.329293,67.6766195 124.408671,67.951796 124.410588,68.2329412 C124.42109,68.4079377 124.34003,68.5758486 124.196471,68.6764706 C123.943904,68.7954813 123.663577,68.8430839 123.385882,68.8141176 L117.88,68.8141176 C117.820237,68.6738429 117.789041,68.5230609 117.788235,68.3705882 C117.761894,68.3069311 117.761894,68.2354219 117.788235,68.1717647 C117.862098,68.1435225 117.943784,68.1435225 118.017647,68.1717647 L118.537647,68.1717647 C118.537647,67.5294118 118.537647,65.8776471 118.537647,63.2470588 C118.537647,61.8247059 118.537647,60.8 118.537647,60.1882353 L117.818824,60.1882353 C117.762404,60.0522721 117.731305,59.9071433 117.727059,59.76 C117.698166,59.6915516 117.698166,59.6143308 117.727059,59.5458824 C117.800922,59.5176401 117.882608,59.5176401 117.956471,59.5458824 L121.015294,59.5458824 C121.074381,59.6702001 121.105694,59.8058912 121.107059,59.9435294 C121.113259,60.0318135 121.085954,60.1191907 121.030588,60.1882353 C120.951911,60.2189479 120.86456,60.2189479 120.785882,60.1882353 L120.235294,60.1882353 C120.235294,60.8305882 120.235294,61.8858824 120.235294,63.3541176 C120.235294,65.8470588 120.235294,67.4070588 120.235294,67.9270588 Z M132.470588,59.2858824 C132.759373,59.2400957 133.053568,59.2400957 133.342353,59.2858824 C133.880013,60.5444795 134.349709,61.8310373 134.749412,63.14 C135.605882,65.6788235 136.187059,67.3152941 136.492941,68.0341176 L137.058824,68.0341176 C137.080566,68.1709061 137.080566,68.3102703 137.058824,68.4470588 C137.087066,68.5209218 137.087066,68.6026076 137.058824,68.6764706 C136.989779,68.7318363 136.902402,68.7591417 136.814118,68.7529412 L134,68.7529412 C133.971908,68.6064325 133.971908,68.4559205 134,68.3094118 C133.973659,68.2457546 133.973659,68.1742454 134,68.1105882 C134.069045,68.0552225 134.156422,68.0279171 134.244706,68.0341176 L134.611765,68.0341176 C134.52,67.6364706 134.305882,66.8411765 133.954118,65.6788235 L130.895294,65.6788235 C130.574118,66.8411765 130.390588,67.6211765 130.314118,68.0341176 L130.941176,68.0341176 C131.000587,68.1637385 131.031862,68.3044755 131.032941,68.4470588 C131.061183,68.5209218 131.061183,68.6026076 131.032941,68.6764706 C130.964661,68.7332556 130.876699,68.7607435 130.788235,68.7529412 L128.111765,68.7529412 C128.064541,68.6096782 128.038772,68.4602171 128.035294,68.3094118 C128.023669,68.23426 128.052776,68.1585809 128.111765,68.1105882 C128.175352,68.0561838 128.257664,68.0287468 128.341176,68.0341176 L128.738824,68.0341176 C129.044706,67.2082353 129.549412,65.6941176 130.268235,63.4458824 C130.987059,61.1976471 131.415294,59.9894118 131.583529,59.6529412 C131.784199,59.3704011 132.128949,59.2277458 132.470588,59.2858824 Z M131.063529,64.8529412 L133.663529,64.8529412 C133.282621,63.4954568 132.833422,62.1580683 132.317647,60.8458824 C131.831349,62.15924 131.41276,63.4966845 131.063529,64.8529412 Z M147.902353,60.0964706 C147.428235,60.9682353 146.495294,62.8494118 145.118824,65.74 C145.118824,66.6729412 145.118824,67.4682353 145.118824,68.0952941 L146.235294,68.0952941 C146.294705,68.224915 146.32598,68.3656519 146.327059,68.5082353 C146.355301,68.5820983 146.355301,68.6637841 146.327059,68.7376471 C146.258778,68.794432 146.170817,68.8219199 146.082353,68.8141176 L142.549412,68.8141176 C142.491139,68.6733807 142.460004,68.5228941 142.457647,68.3705882 C142.431306,68.3069311 142.431306,68.2354219 142.457647,68.1717647 C142.525928,68.1149797 142.613889,68.0874918 142.702353,68.0952941 L143.451765,68.0952941 C143.451765,67.4682353 143.451765,66.7188235 143.451765,65.8776471 C141.922353,62.8188235 140.943529,60.9070588 140.484706,60.0964706 L140.117647,60.0964706 C140.097564,59.9544319 140.097564,59.810274 140.117647,59.6682353 C140.088754,59.5997869 140.088754,59.5225661 140.117647,59.4541176 C140.19151,59.4258754 140.273196,59.4258754 140.347059,59.4541176 L143.130588,59.4541176 C143.189675,59.5784354 143.220988,59.7141265 143.222353,59.8517647 C143.251639,59.9307047 143.251639,60.0175306 143.222353,60.0964706 C143.143675,60.1271832 143.056325,60.1271832 142.977647,60.0964706 L142.625882,60.0964706 C142.84,60.7082353 143.207059,61.6258824 143.757647,62.8952941 C144.0002,63.5411515 144.296943,64.1653369 144.644706,64.7611765 C144.967768,64.1815229 145.234102,63.5720278 145.44,62.9411765 C145.823061,62.0118022 146.15493,61.0621446 146.434118,60.0964706 L145.837647,60.0964706 C145.781227,59.9605074 145.750128,59.8153786 145.745882,59.6682353 C145.739332,59.5891786 145.767204,59.5111389 145.822353,59.4541176 C145.896216,59.4258754 145.977902,59.4258754 146.051765,59.4541176 L148.56,59.4541176 C148.619087,59.5784354 148.6504,59.7141265 148.651765,59.8517647 C148.681051,59.9307047 148.681051,60.0175306 148.651765,60.0964706 C148.573087,60.1271832 148.485736,60.1271832 148.407059,60.0964706 L147.902353,60.0964706 Z M155.763529,59.2858824 C156.057492,59.2407258 156.356626,59.2407258 156.650588,59.2858824 C157.186421,60.543471 157.651077,61.8302101 158.042353,63.14 C158.914118,65.6788235 159.571765,67.3152941 159.801176,68.0341176 L160.397647,68.0341176 C160.457058,68.1637385 160.488332,68.3044755 160.489412,68.4470588 C160.517654,68.5209218 160.517654,68.6026076 160.489412,68.6764706 C160.421131,68.7332556 160.33317,68.7607435 160.244706,68.7529412 L157.384706,68.7529412 C157.326433,68.6122043 157.295298,68.4617176 157.292941,68.3094118 C157.2666,68.2457546 157.2666,68.1742454 157.292941,68.1105882 C157.361222,68.0538033 157.449183,68.0263154 157.537647,68.0341176 L157.904706,68.0341176 C157.812941,67.6364706 157.598824,66.8411765 157.247059,65.6788235 L154.188235,65.6788235 C153.867059,66.8411765 153.668235,67.6211765 153.607059,68.0341176 L154.249412,68.0341176 C154.278315,68.1702474 154.278315,68.3109291 154.249412,68.4470588 C154.277654,68.5209218 154.277654,68.6026076 154.249412,68.6764706 C154.181131,68.7332556 154.09317,68.7607435 154.004706,68.7529412 L151.42,68.7529412 C151.391908,68.6064325 151.391908,68.4559205 151.42,68.3094118 C151.393659,68.2457546 151.393659,68.1742454 151.42,68.1105882 C151.489045,68.0552225 151.576422,68.0279171 151.664706,68.0341176 L152.062353,68.0341176 C152.368235,67.2082353 152.872941,65.6941176 153.591765,63.4458824 C154.310588,61.1976471 154.723529,59.9894118 154.891765,59.6529412 C155.09419,59.3814277 155.427858,59.2409361 155.763529,59.2858824 Z M154.371765,64.8529412 L156.941176,64.8529412 C156.560268,63.4954568 156.111069,62.1580683 155.595294,60.8458824 C155.110339,62.1567953 154.70181,63.4947274 154.371765,64.8529412 Z M168.717647,67.9423529 C169.504248,67.9531938 170.276263,67.7295757 170.935294,67.3 C171.156672,67.507091 171.288388,67.7924741 171.302353,68.0952941 C171.302353,68.3552941 170.996471,68.5694118 170.4,68.7223529 C169.698605,68.8876466 168.979316,68.9647134 168.258824,68.9517647 C167.194781,69.044571 166.13772,68.708734 165.322353,68.0188235 C164.584916,67.0434875 164.245932,65.8242377 164.374118,64.6082353 C164.255836,63.1677863 164.651361,61.7319764 165.490588,60.5552941 C166.326465,59.6458513 167.531449,59.1672361 168.763529,59.2552941 C169.375678,59.2346652 169.987823,59.2963941 170.583529,59.4388235 C170.981176,59.5764706 171.195294,59.7905882 171.195294,60.0964706 C171.180996,60.3894901 171.041792,60.6623286 170.812941,60.8458824 C170.069435,60.4807891 169.255177,60.2824441 168.427059,60.2647059 C167.734695,60.2217046 167.069352,60.5399121 166.668235,61.1058824 C166.196896,61.9814294 165.989698,62.974919 166.071765,63.9658824 C165.981233,65.0246377 166.199011,66.086971 166.698824,67.0247059 C167.171277,67.6548073 167.932259,68.0007084 168.717647,67.9423529 Z M179.882353,59.2858824 C180.171138,59.2400957 180.465333,59.2400957 180.754118,59.2858824 C181.291778,60.5444795 181.761474,61.8310373 182.161176,63.14 C183.017647,65.6788235 183.598824,67.3152941 183.904706,68.0341176 L184.516471,68.0341176 C184.538213,68.1709061 184.538213,68.3102703 184.516471,68.4470588 C184.526436,68.5308446 184.497429,68.6145732 184.437766,68.6742363 C184.378103,68.7338994 184.294374,68.7629069 184.210588,68.7529412 L181.411765,68.7529412 C181.353492,68.6122043 181.322357,68.4617176 181.32,68.3094118 C181.293659,68.2457546 181.293659,68.1742454 181.32,68.1105882 C181.388281,68.0538033 181.476242,68.0263154 181.564706,68.0341176 L181.931765,68.0341176 C181.84,67.6364706 181.625882,66.8411765 181.274118,65.6788235 L178.215294,65.6788235 C177.894118,66.8411765 177.695294,67.6211765 177.634118,68.0341176 L178.352941,68.0341176 C178.412352,68.1637385 178.443627,68.3044755 178.444706,68.4470588 C178.472948,68.5209218 178.472948,68.6026076 178.444706,68.6764706 C178.376425,68.7332556 178.288464,68.7607435 178.2,68.7529412 L175.661176,68.7529412 C175.613953,68.6096782 175.588184,68.4602171 175.584706,68.3094118 C175.558365,68.2457546 175.558365,68.1742454 175.584706,68.1105882 C175.655043,68.0576959 175.741473,68.0306865 175.829412,68.0341176 L176.227059,68.0341176 C176.532941,67.2082353 177.037647,65.6941176 177.756471,63.4458824 C178.475294,61.1976471 178.903529,59.9894118 179.056471,59.6529412 C179.252001,59.3988261 179.562706,59.260735 179.882353,59.2858824 Z M178.475294,64.8529412 L181.075294,64.8529412 C180.694385,63.4954568 180.245186,62.1580683 179.729412,60.8458824 C179.234103,62.1561469 178.815358,63.4940886 178.475294,64.8529412 Z M191.368235,68.0952941 L192.347059,68.0952941 C192.406469,68.224915 192.437744,68.3656519 192.438824,68.5082353 C192.467066,68.5820983 192.467066,68.6637841 192.438824,68.7376471 C192.370543,68.794432 192.282582,68.8219199 192.194118,68.8141176 L188.951765,68.8141176 C188.893492,68.6733807 188.862357,68.5228941 188.86,68.3705882 C188.855924,68.2964338 188.883754,68.2240761 188.936471,68.1717647 C189.004751,68.1149797 189.092712,68.0874918 189.181176,68.0952941 L189.808235,68.0952941 C189.808235,67.4682353 189.808235,65.8164706 189.808235,63.1858824 C189.808235,61.7635294 189.808235,60.7388235 189.808235,60.1270588 L188.997647,60.1270588 C188.977564,59.9850201 188.977564,59.8408622 188.997647,59.6988235 C188.997647,59.5917647 188.997647,59.5305882 188.997647,59.4847059 C189.07151,59.4564637 189.153196,59.4564637 189.227059,59.4847059 L192.285882,59.4847059 C193.339815,59.3877747 194.399766,59.5891653 195.344706,60.0658824 C195.942759,60.4718493 196.28045,61.1646982 196.231765,61.8858824 C196.231765,63.1705882 195.467059,64.0270588 193.937647,64.5011765 C194.36277,64.6273374 194.737355,64.884196 195.008235,65.2352941 C195.341875,65.7166003 195.628673,66.2287402 195.864706,66.7647059 C196.029673,67.2087737 196.267434,67.6222718 196.568235,67.9882353 C196.781561,68.1395957 197.0418,68.2100771 197.302353,68.1870588 C197.409412,68.5235294 197.394118,68.7529412 197.302353,68.86 C197.035842,69.0195054 196.723218,69.0841862 196.415294,69.0435294 C196.011037,69.0713901 195.606225,68.997788 195.237647,68.8294118 C194.992941,68.6917647 194.748235,68.1717647 194.488235,67.3 C194.328705,66.6424607 194.048681,66.0201859 193.662353,65.4647059 C193.351388,65.0994801 192.887087,64.9013031 192.408235,64.9294118 C192.123222,64.9060675 191.836778,64.9060675 191.551765,64.9294118 C191.322353,66.5047059 191.337647,67.56 191.368235,68.0952941 Z M191.368235,63.9658824 L191.949412,63.9658824 C192.542098,63.9830812 193.128489,63.8404455 193.647059,63.5529412 C194.058501,63.2725795 194.291147,62.795656 194.258824,62.2988235 C194.305903,61.7604702 194.102881,61.2303586 193.708235,60.8611765 C193.262024,60.5457146 192.724997,60.3846064 192.178824,60.4023529 C191.914418,60.3752527 191.647935,60.3752527 191.383529,60.4023529 C191.383529,60.8 191.383529,61.7329412 191.383529,63.2011765 L191.368235,63.9658824 Z" id="Letters" fill="#231F20"></path>
    </g>
</svg>