<?xml version="1.0" encoding="utf-8"?>
<!-- Generator: Adobe Illustrator 23.0.4, SVG Export Plug-In . SVG Version: 6.00 Build 0)  -->
<svg version="1.1" id="Layer_1" xmlns="http://www.w3.org/2000/svg" xmlns:xlink="http://www.w3.org/1999/xlink" x="0px" y="0px"
	 viewBox="0 0 344.37 160.44" style="enable-background:new 0 0 344.37 160.44;" xml:space="preserve">
<style type="text/css">
	.st0{opacity:0.3;}
	.st1{fill:#201600;}
	.st2{opacity:0.88;}
	.st3{fill:#CB2229;}
	.st4{fill:#272525;}
	
		.st5{opacity:0.8;fill:none;stroke:#201600;stroke-width:2;stroke-linecap:round;stroke-linejoin:round;stroke-miterlimit:10;stroke-dasharray:3,4;}
</style>
<path class="st3" d="M324.15,54.5c-1.21,0.19-2.03,1.33-1.84,2.54c0.19,1.21,1.33,2.03,2.54,1.84c1.21-0.19,2.03-1.33,1.84-2.54
	C326.5,55.13,325.36,54.31,324.15,54.5z"/>
<g>
	<path class="st4" d="M24.51,135.21c-0.69,0.11-1.17,0.76-1.06,1.46c0.11,0.69,0.76,1.17,1.46,1.06c0.69-0.11,1.17-0.76,1.06-1.46
		C25.85,135.57,25.2,135.1,24.51,135.21z"/>
	<path class="st3" d="M21.71,121.81l0.94,0.68l0.68-0.94c1.32-1.82,3.87-2.23,5.69-0.91l0,0c1.82,1.32,2.23,3.87,0.91,5.69
		l-5.1,7.05c-0.19,0.27-0.57,0.33-0.84,0.13l-7.05-5.1c-1.82-1.32-2.23-3.87-0.91-5.69h0C17.34,120.9,19.89,120.49,21.71,121.81z"/>
</g>
<path class="st5" d="M134.41,130.24c36.29-11.23,50.95-38.45,50.95-38.45s23.47-36.16,9.2-56.14c-14.27-19.98-28.56-2.26-31.08,2.22
	s-3.17,20.62-3.17,20.62c-3.49-7.61-11.74-12.69-11.74-12.69c-22.52-14.91-29.6,9.49-30.45,13.64s4.76,29.81,40.92,43.77
	s58.95,6.99,65.97,1.27c15.7-12.8,0.51-40.15-4.44-24.11C217.25,91.09,225,101.3,225,101.3c29.25,21.94,92.33-5.89,98.43-39.51"/>
<path class="st3" d="M109.83,133.43c1.38-0.33,2.78-0.63,4.18-0.9c0.15-0.03,0.3-0.05,0.45-0.07l2.36-6.53l1.97-0.31l-0.82,6.28
	c0.1-0.01,0.2-0.03,0.3-0.05c1.73-0.23,3.47-0.45,5.21-0.59c0.32-0.03,0.69-0.02,1.05,0.01l1.37-2.15l1.06-0.17l-0.38,3.28l1.38,3
	l-1.06,0.17l-2-1.65c-0.29,0.11-0.58,0.21-0.84,0.28c-1.24,0.37-2.52,0.59-3.8,0.84c-0.59,0.12-1.19,0.19-1.79,0.3l2.74,5.75
	l-1.97,0.31l-4.26-5.48c-0.07,0.01-0.14,0.03-0.21,0.04c-1.55,0.2-3.12,0.38-4.67,0.49c-0.97,0.06-2.46,0.08-2.63-1.02
	C107.28,134.07,108.9,133.66,109.83,133.43z"/>
</svg>
