<?xml version="1.0" encoding="utf-8"?>
<!-- Generator: Adobe Illustrator 23.0.4, SVG Export Plug-In . SVG Version: 6.00 Build 0)  -->
<svg version="1.1" id="Layer_1" xmlns="http://www.w3.org/2000/svg" xmlns:xlink="http://www.w3.org/1999/xlink" x="0px" y="0px"
	 viewBox="0 0 600 314.37" style="enable-background:new 0 0 600 314.37;" xml:space="preserve">
<style type="text/css">
	.st0{opacity:0.3;}
	.st1{fill:#201600;}
	.st2{opacity:0.88;}
	.st3{fill:#CB2229;}
	.st4{fill:#272525;}
	
		.st5{opacity:0.8;fill:none;stroke:#201600;stroke-width:2;stroke-linecap:round;stroke-linejoin:round;stroke-miterlimit:10;stroke-dasharray:3,4;}
</style>
<g class="st2">
	<path class="st1" d="M274.47,196.66v22.84h-3.51v-12.4l-7.42,12.03h-0.03l-7.43-12.04v12.41h-3.51v-22.84h0.26l10.69,16.26
		l10.68-16.26H274.47z"/>
	<path class="st1" d="M292.28,216.11H281.7l-1.53,3.4h-3.8l10.51-22.82h0.21l10.51,22.82h-3.8L292.28,216.11z M290.92,213.1
		l-3.93-8.74l-3.94,8.74H290.92z"/>
	<path class="st1" d="M300.25,209.95l-7.42-12.8h3.95l5.2,8.9l5.22-8.9h3.95l-7.42,12.8v9.56h-3.48V209.95z"/>
	<path class="st1" d="M325.35,219.51l-6.02-8.66h-2.75v8.66h-3.51l-0.01-22.36h6.95c4.16,0,7.57,3.2,7.57,7.18
		c0,2.88-1.86,5.4-4.42,6.23l6.51,8.95H325.35z M320.09,207.94c2.11,0.01,3.87-1.69,3.87-3.69c0-2.08-1.79-3.62-3.87-3.62h-3.52
		v7.31H320.09z"/>
	<path class="st1" d="M345.53,216.11h-10.58l-1.53,3.4h-3.8l10.51-22.82h0.21l10.51,22.82h-3.8L345.53,216.11z M344.17,213.1
		l-3.93-8.74l-3.94,8.74H344.17z"/>
	<path class="st1" d="M379.14,219.7c-1.54-0.01-3.58-0.92-5.71-2.34c-1.65,1.68-3.84,2.58-6.34,2.58c-5.06,0-7.64-3.68-7.64-6.98
		c0-2.7,1.79-5.28,3.77-6.45c-0.85-1.57-1.36-3.04-1.36-4.29c0-2.77,2.57-5.63,5.91-5.63c3.02,0,5.41,2.34,5.83,5.02l-3.4,0.64
		c-0.17-1.36-1.28-2.41-2.54-2.41c-1.29,0-2.33,1.1-2.33,2.51c0,2.59,3.47,7.09,7.12,10.29c0.54-1.21,0.86-2.68,0.93-4.31l3.3-0.04
		c-0.06,2.57-0.58,4.76-1.46,6.5c1.53,1.03,2.91,1.65,3.94,1.65L379.14,219.7z M370.61,215.2c-2.12-1.8-4.16-3.95-5.73-6.1
		c-1.33,0.94-2.11,2.19-2.11,3.65c0,2.12,1.43,3.76,4.13,3.76C368.37,216.5,369.62,216.04,370.61,215.2z"/>
	<path class="st1" d="M387.63,218.4l1.78-3.09c0.83,0.71,2.01,1.14,3.27,1.14h0.1c3,0,5.44-2.52,5.44-5.49l-0.07-13.8l3.51,0.01
		l0.07,13.81c0,5.01-3.98,8.96-8.92,8.96h-0.15C390.85,219.94,389.03,219.37,387.63,218.4z"/>
	<path class="st1" d="M404.16,208.36c0-6.38,5.19-11.6,11.55-11.6c6.35,0,11.57,5.21,11.57,11.6c0,6.32-5.21,11.51-11.58,11.51
		C409.35,219.87,404.16,214.68,404.16,208.36z M423.73,208.33c0-4.42-3.62-8.03-8.03-8.03c-4.41,0-8,3.61-8,8.03
		c0,4.4,3.59,7.99,8,7.99C420.11,216.32,423.73,212.73,423.73,208.33z"/>
	<path class="st1" d="M442.21,219.51l-6.02-8.66h-2.75v8.66h-3.51l-0.01-22.36h6.95c4.16,0,7.57,3.2,7.57,7.18
		c0,2.88-1.86,5.4-4.42,6.23l6.51,8.95H442.21z M436.96,207.94c2.11,0.01,3.87-1.69,3.87-3.69c0-2.08-1.79-3.62-3.87-3.62h-3.52
		v7.31H436.96z"/>
	<path class="st1" d="M466.21,208.36c0,6.87-4.42,11.15-11.53,11.15h-6.37v-22.36h6.37C461.78,197.14,466.21,201.44,466.21,208.36z
		 M462.65,208.34c0-4.74-3.08-7.71-7.99-7.71h-2.86v15.38h2.9C459.59,216.01,462.65,213.06,462.65,208.34z"/>
	<path class="st1" d="M468.85,197.15h3.51v22.36h-3.51V197.15z"/>
</g>
<g class="st2">
	<g>
		<path class="st1" d="M256.12,235.23v15.67h-2.44v-12.54l-2.1,0.63v-2.54l3.82-1.21H256.12z"/>
		<path class="st1" d="M257.97,246.24c0-2.37,1.83-3.93,3.13-4.11c-1.18-0.24-2.31-1.51-2.31-3.07c0-2.05,1.86-3.95,4.48-3.95
			c2.61,0,4.49,1.87,4.49,3.95c0,1.65-1.28,2.86-2.3,3.07c1.18,0.21,3.1,1.72,3.1,4.12c0,2.63-2.21,4.89-5.3,4.89
			C260.14,251.14,257.97,248.85,257.97,246.24z M266.1,246.1c0-1.43-1.3-2.62-2.83-2.62c-1.54,0-2.87,1.18-2.87,2.64
			c0,1.44,1.25,2.6,2.84,2.6S266.1,247.56,266.1,246.1z M265.4,239.23c0-1.17-0.95-1.86-2.13-1.86s-2.13,0.69-2.13,1.84
			c0,1.13,0.99,1.83,2.13,1.83C264.35,241.04,265.4,240.41,265.4,239.23z"/>
		<path class="st1" d="M276.54,243.36c0-1.45,1.19-2.66,2.67-2.66c1.46,0,2.66,1.19,2.66,2.65s-1.2,2.64-2.67,2.64
			C277.73,245.99,276.54,244.82,276.54,243.36z"/>
		<path class="st1" d="M289.7,248.17l1.93-1.38c0.69,1.21,1.98,1.91,3.48,1.91c1.74,0,3.06-0.84,3.06-2.02
			c0-1.43-2.04-2.3-3.85-3.08c-1.82-0.81-3.84-1.75-3.84-4.19c0-2.54,2.21-4.31,5-4.31c2.21,0,3.87,1.07,4.51,2.77l-1.81,1.25
			c-0.48-1.05-1.55-1.64-2.68-1.64c-1.43,0-2.56,0.89-2.56,1.98c0,1.21,1.43,1.65,3.32,2.46c2.46,1.08,4.36,2.26,4.36,4.71
			c0,2.75-2.39,4.53-5.54,4.53C292.52,251.15,290.59,249.96,289.7,248.17z"/>
		<path class="st1" d="M304.74,237.77v3.98h5.87v2.43h-5.87v4.29h6.81v2.43h-9.24v-15.52h9.24v2.4H304.74z"/>
		<path class="st1" d="M313.67,235.37h5.19c3,0,5.46,2.3,5.46,5.12c0,2.76-2.46,5.02-5.46,5.02h-2.75v5.38h-2.44V235.37z
			 M321.89,240.47c0-1.48-1.36-2.69-3.02-2.69h-2.75v5.31l2.75,0.01C320.53,243.11,321.89,241.93,321.89,240.47z"/>
		<path class="st1" d="M335.58,237.79h-4.16v13.1h-2.45v-13.1h-4.16v-2.42h10.76V237.79z"/>
		<path class="st1" d="M337.11,235.37h2.44v15.52h-2.44V235.37z"/>
		<path class="st1" d="M344.57,237.77v3.98h5.87v2.43h-5.87v4.29h6.81v2.43h-9.24v-15.52h9.24v2.4H344.57z"/>
		<path class="st1" d="M368.71,235.04v15.86h-2.44v-8.61l-5.15,8.35h-0.02l-5.16-8.36v8.62h-2.44v-15.86h0.18l7.42,11.28l7.41-11.28
			H368.71z"/>
		<path class="st1" d="M381.98,246.17c0,2.38-1.8,4.73-4.88,4.73h-5.81v-15.52h4.24c2.68,0,4.49,1.93,4.49,3.99
			c0,1.68-1.17,2.79-1.74,2.79C380.02,242.15,381.98,243.75,381.98,246.17z M373.72,237.74v3.87l1.93-0.01
			c1.2,0.01,2.09-0.82,2.09-1.93s-0.96-1.94-2.06-1.94H373.72z M379.6,246c0-1.17-1-2.25-2.76-2.25l-3.12,0.01v4.76h3.16
			C378.27,248.51,379.6,247.5,379.6,246z"/>
		<path class="st1" d="M392.04,250.89l-4.18-6.01h-1.91v6.01h-2.44l-0.01-15.52h4.82c2.89,0,5.26,2.22,5.26,4.99
			c0,2-1.29,3.75-3.07,4.32l4.52,6.21H392.04z M388.4,242.86c1.46,0.01,2.69-1.17,2.69-2.56c0-1.44-1.24-2.51-2.69-2.51h-2.45v5.07
			H388.4z"/>
		<path class="st1" d="M398.71,237.77v3.98h5.87v2.43h-5.87v4.29h6.81v2.43h-9.24v-15.52h9.24v2.4H398.71z"/>
		<path class="st1" d="M413.8,243.36c0-1.45,1.19-2.66,2.67-2.66c1.46,0,2.66,1.19,2.66,2.65s-1.2,2.64-2.67,2.64
			C414.99,245.99,413.8,244.82,413.8,243.36z"/>
		<path class="st1" d="M438.74,248.47v2.43h-11.63v-0.52c6.38-5.17,8.98-7.86,8.98-9.74c0-1.75-1.42-3.05-2.91-3.05
			c-1.81,0-3.26,1.44-3.26,3.31l-2.22-0.54c0-2.92,2.42-5.21,5.41-5.21c3.04,0,5.43,2.5,5.43,5.36c0,2.69-2.73,5.72-6.25,7.96
			H438.74z"/>
		<path class="st1" d="M439.83,243.13c0-4.68,2.56-7.99,6.33-7.99c3.77,0,6.34,3.31,6.34,7.99c0,4.67-2.56,7.98-6.34,7.98
			C442.4,251.11,439.83,247.8,439.83,243.13z M450.06,243.13c0-3.24-1.56-5.55-3.9-5.55c-2.35,0-3.9,2.3-3.9,5.55
			c0,3.24,1.55,5.53,3.9,5.53C448.5,248.66,450.06,246.37,450.06,243.13z"/>
		<path class="st1" d="M465.23,248.47v2.43h-11.63v-0.52c6.38-5.17,8.98-7.86,8.98-9.74c0-1.75-1.42-3.05-2.91-3.05
			c-1.81,0-3.26,1.44-3.26,3.31l-2.22-0.54c0-2.92,2.42-5.21,5.41-5.21c3.04,0,5.43,2.5,5.43,5.36c0,2.69-2.73,5.72-6.25,7.96
			H465.23z"/>
		<path class="st1" d="M470.85,235.23v15.67h-2.44v-12.54l-2.1,0.63v-2.54l3.82-1.21H470.85z"/>
	</g>
</g>
<g class="st2">
	<g>
		<path class="st1" d="M251.26,266.72h4.27c2.61,0,4.74,1.96,4.74,4.35c0,2.29-2.13,4.16-4.74,4.16h-2.75v4.98h-1.52V266.72z
			 M258.75,271.06c0-1.56-1.45-2.83-3.22-2.83h-2.75v5.49l2.75,0.01C257.3,273.74,258.75,272.54,258.75,271.06z"/>
		<path class="st1" d="M273.67,278.69v1.51h-8.13v-13.48h1.52v11.97H273.67z"/>
		<path class="st1" d="M287.94,277.99h-7.36l-0.99,2.22h-1.65l6.23-13.69h0.17l6.24,13.69h-1.66L287.94,277.99z M287.36,276.67
			l-3.09-6.93l-3.09,6.93H287.36z"/>
		<path class="st1" d="M296.27,274.48l-4.76-7.75h1.71l3.81,6.05l3.81-6.05h1.71l-4.77,7.75v5.73h-1.51V274.48z"/>
		<path class="st1" d="M313.48,277.99h-7.36l-0.99,2.22h-1.65l6.23-13.69h0.17l6.24,13.69h-1.66L313.48,277.99z M312.89,276.67
			l-3.09-6.93l-3.09,6.93H312.89z"/>
		<path class="st1" d="M340.25,273.47c0,4.11-2.68,6.73-6.87,6.73h-3.75v-13.48l3.75-0.01
			C337.57,266.72,340.25,269.34,340.25,273.47z M338.72,273.47c0-3.19-2.09-5.24-5.35-5.24h-2.22v10.45h2.25
			C336.64,278.68,338.72,276.64,338.72,273.47z"/>
		<path class="st1" d="M347.33,268.22v4.26h5.54v1.52h-5.54v4.68h6.4v1.51h-7.92v-13.48h7.92v1.5H347.33z"/>
		<path class="st1" d="M367.7,278.69v1.51h-8.13v-13.48h1.52v11.97H367.7z"/>
		<path class="st1" d="M380.7,273.47c0-3.79,3.14-6.94,6.92-6.94c1.73,0.02,3.41,0.81,4.63,2.04l-0.89,1.2
			c-0.97-1-2.33-1.69-3.8-1.69c-2.71,0-5.33,2.34-5.33,5.39c0,3.04,2.59,5.38,5.35,5.38c1.52,0,2.82-0.72,3.79-1.67l0.88,1.22
			c-1.12,1.11-2.63,1.98-4.62,1.98C383.89,280.38,380.7,277.29,380.7,273.47z"/>
		<path class="st1" d="M406.32,277.99h-7.36l-0.99,2.22h-1.65l6.23-13.69h0.17l6.24,13.69h-1.66L406.32,277.99z M405.74,276.67
			l-3.08-6.93l-3.09,6.93H405.74z"/>
		<path class="st1" d="M421.83,280.2l-3.76-5.26h-2.52v5.26h-1.52l-0.01-13.48H418c2.5,0,4.54,1.92,4.54,4.3
			c0,1.75-1.2,3.25-2.83,3.75l4.01,5.44H421.83z M418.05,273.67c1.61,0,2.93-1.22,2.93-2.68c0-1.55-1.34-2.76-2.93-2.76h-2.51v5.43
			L418.05,273.67z"/>
		<path class="st1" d="M441.91,266.47v13.73h-1.52v-9.15l-5.07,8.92h-0.02l-5.08-8.94v9.16h-1.52v-13.73h0.17l6.43,10.72l6.43-10.72
			H441.91z"/>
		<path class="st1" d="M449.7,268.22v4.26h5.54v1.52h-5.54v4.68h6.4v1.51h-7.92v-13.48h7.92v1.5H449.7z"/>
		<path class="st1" d="M472.77,266.69v13.72h-0.08l-9.24-10.26v10.07h-1.52v-13.71h0.08l9.23,10.25v-10.08H472.77z"/>
	</g>
</g>
<g>
	<path class="st1" d="M61.02,168.16c-2.15,0-4.25-0.41-6.28-1.22c-2.04-0.82-3.75-2.15-5.15-4.01c-1.4-1.86-2.09-4.19-2.09-6.98
		c0-3.08,1.34-6.55,4.02-10.39c2.15-3.08,4.57-5.88,7.24-8.38c4.19-3.84,10.21-7.86,18.07-12.05c-2.79-5.24-7.16-11.61-13.09-19.12
		c-4.54-5.64-8.35-11.26-11.43-16.85c-2.74-5.06-4.1-10.65-4.1-16.76c0-1.45,0.16-3.45,0.48-5.98c0.32-2.53,1.31-5.28,2.97-8.25
		c1.66-2.97,3.97-5.29,6.94-6.98c2.04-1.05,3.96-1.57,5.76-1.57c0.58,0,1.58,0.13,3.01,0.39c1.43,0.26,3.07,1.21,4.93,2.84
		c5.76,5.12,8.64,13.73,8.64,25.84c0,7.86-1.05,13.12-3.14,15.8c-0.41,0.47-0.76,0.7-1.05,0.7c-0.35,0-0.52-0.23-0.52-0.7
		c0-0.29,0.09-0.7,0.26-1.22l0.44-0.87c1.45-3.32,2.18-7.68,2.18-13.09c0-1.16-0.12-3.52-0.35-7.07c-0.23-3.55-1.31-7.33-3.23-11.35
		c-1.4-2.73-3.04-4.93-4.93-6.59c-1.89-1.66-3.8-2.49-5.72-2.49c-0.23,0-0.95,0.07-2.14,0.22c-1.19,0.15-2.69,1.96-4.5,5.46
		c-1.57,3.32-2.36,6.81-2.36,10.47c0,0.35,0.04,1.63,0.13,3.84c0.09,2.21,0.86,5.25,2.31,9.12c1.45,3.87,3.2,7.41,5.24,10.61
		c2.21,3.38,4.44,6.66,6.68,9.86c2.24,3.2,4.44,6.47,6.59,9.82c2.15,3.35,4.16,6.71,6.02,10.08c5.12-2.97,10.71-5.82,16.76-8.55
		c0.76-0.35,1.4-0.52,1.92-0.52c0.58,0,0.87,0.23,0.87,0.7c0,0.29-0.47,0.64-1.4,1.05c-0.41,0.17-6.14,3.29-17.2,9.34l0.52,1.75
		c1.57,3.96,2.36,8.47,2.36,13.53c0,0.52-0.04,1.83-0.13,3.93c-0.09,2.09-0.71,4.68-1.88,7.77c-2.97,7.39-7.56,12.57-13.79,15.54
		C67.62,167.37,64.33,168.16,61.02,168.16z M61.8,166.24c1.92,0,3.78-0.41,5.59-1.22c3.32-1.51,6.25-4.1,8.82-7.77
		c3.26-4.71,4.89-10.07,4.89-16.06c0-0.64-0.07-2.21-0.22-4.71c-0.15-2.5-1.12-5.67-2.92-9.51c-0.99,0.58-1.86,1.05-2.62,1.4
		c-0.76,0.35-1.48,0.76-2.18,1.22c-6.17,3.55-11.52,7.71-16.06,12.48c-4.42,4.89-6.63,9.57-6.63,14.05c0,0.87,0.16,2.08,0.48,3.62
		c0.32,1.54,1.43,3.01,3.32,4.41C56.14,165.54,58.66,166.24,61.8,166.24z"/>
	<path class="st1" d="M129.01,142.5c-1.34,0-2.79-0.65-4.36-1.96c-1.57-1.31-2.94-3.61-4.1-6.9c-1.16-3.29-1.75-6.85-1.75-10.69
		c-0.23,0.17-0.64,0.71-1.22,1.61c-0.58,0.9-1.66,2.66-3.23,5.28c-0.82,1.69-1.98,3.32-3.49,4.89c-1.22,1.16-2.42,1.75-3.58,1.75
		c-1.8,0-3.49-1.02-5.06-3.06c-2.15-2.79-3.23-6.6-3.23-11.43c0-0.87,0.09-2.41,0.26-4.63c0.17-2.21,0.9-4.93,2.18-8.16
		c1.28-3.23,3-5.85,5.15-7.86c2.15-2.01,4.36-3.01,6.63-3.01c3.55,0,6.02,1.72,7.42,5.15l1.4,2.79c0.46-2.04,1.43-4.42,2.88-7.16
		l0.09-0.17c1.69-3.37,3.37-5.12,5.06-5.24c0.99,0,1.75,0.31,2.27,0.92c0.52,0.61,0.79,1.41,0.79,2.4c0,0.35-0.67,2.62-2.01,6.81
		c-2.09,7.68-3.38,12.54-3.84,14.58c-1.17,5.24-1.75,9.63-1.75,13.18c0,5.35,1.19,8.03,3.58,8.03c2.44,0,4.83-2.21,7.16-6.63
		c4.31-7.8,7.1-13.85,8.38-18.16c0.64-1.57,1.25-2.41,1.83-2.53c0.23,0,0.42,0.07,0.57,0.22c0.14,0.15,0.22,0.3,0.22,0.48
		c0,0.58-0.64,2.39-1.92,5.41c-3.03,7.16-5.3,12.25-6.81,15.27C135.5,139.56,132.33,142.5,129.01,142.5z M107.62,133.33
		c1.22,0,3.2-2.07,5.94-6.2c2.56-3.9,4.31-7.01,5.24-9.34c0.64-1.75,0.96-3.84,0.96-6.28c0-2.44-0.29-4.54-0.87-6.29
		c-0.87-2.21-1.69-3.32-2.44-3.32c-0.82,0-1.83,1.31-3.06,3.93c-1.57,3.14-2.97,6.95-4.19,11.43c-1.92,6.75-2.88,11.29-2.88,13.62
		C106.32,132.52,106.75,133.33,107.62,133.33z"/>
	<path class="st1" d="M158.69,146.86c-1.51,0-2.85-0.38-4.02-1.13c-3.14-1.98-5.57-5.79-7.29-11.43
		c-1.72-5.64-2.57-12.48-2.57-20.51c0-3.26,0.17-6.34,0.52-9.25c0.06-0.46,0.1-1.06,0.13-1.79c0.03-0.73,0.1-1.5,0.22-2.31
		c0.29-1.92,1.08-2.88,2.36-2.88c0.93,0,1.89,0.19,2.88,0.57c0.99,0.38,1.75,0.83,2.27,1.35c0.7,0.99,1.05,2.53,1.05,4.63
		c0,3.2-0.06,6.26-0.17,9.17l-0.09,6.63c0,4.83,0.29,9.49,0.87,13.97c0.93,6.34,2.06,9.51,3.4,9.51c0.17,0,0.49-0.15,0.96-0.44
		c1.05-0.7,2.33-3.61,3.84-8.73c2.68-9.25,4.02-15.22,4.02-17.89c0-0.76-0.15-1.29-0.44-1.62c-0.29-0.32-0.52-0.71-0.7-1.18
		c-0.52-1.05-0.79-3.03-0.79-5.94c0-1.57,0.76-2.36,2.27-2.36c0.7,0,1.5,0.26,2.4,0.79c0.9,0.52,1.35,1.57,1.35,3.14v1.31
		c0,2.44,0.46,4.7,1.4,6.76c0.93,2.07,2.12,3.1,3.58,3.1c0.93,0,1.93-0.38,3.01-1.13c1.08-0.75,2.12-1.73,3.14-2.92
		c1.02-1.19,1.85-2.28,2.49-3.27c0.35-0.41,0.64-0.61,0.87-0.61c0.41,0,0.61,0.29,0.61,0.87c0,0.23-0.06,0.5-0.17,0.79
		c-3.08,5.35-6.78,8.03-11.09,8.03c-2.33,0-4.22-0.99-5.67-2.97c-0.06,1.28-0.84,5-2.36,11.17c-1.69,7.04-2.97,11.46-3.84,13.27
		C162.03,145.76,160.55,146.86,158.69,146.86z"/>
	<path class="st1" d="M194.39,136.39c-1.46,0-2.85-0.35-4.19-1.05c-2.62-1.34-4.6-3.17-5.94-5.5c-0.87-1.75-1.35-2.92-1.44-3.54
		c-0.09-0.61-0.22-1.38-0.39-2.31l-0.09-1.66c0-1.92,0.29-3.87,0.87-5.85c1.22-4.83,3.87-9.19,7.94-13.09
		c2.73-2.56,5.35-3.84,7.86-3.84c1.22,0,2.39,0.38,3.49,1.13c1.1,0.76,1.66,1.72,1.66,2.88c0,1.69-0.52,3.46-1.57,5.32
		c-2.62,4.66-5.85,8.64-9.69,11.96c-0.99,0.82-1.57,1.37-1.75,1.66c-0.41,0.99-0.61,2.68-0.61,5.06c0,3.03,0.55,4.89,1.66,5.59
		c0.81,0.41,1.75,0.61,2.79,0.61c1.69,0,3.71-1.1,6.07-3.32c2.36-2.21,4.79-5.47,7.29-9.78c1.69-2.85,3.11-5.35,4.28-7.51
		c0.47-0.7,0.9-1.05,1.31-1.05c0.46,0,0.7,0.29,0.7,0.87c0,0.52-0.26,1.34-0.79,2.44l-0.52,1.13c-3.32,6.87-6.46,11.89-9.43,15.06
		S197.76,136.39,194.39,136.39z M192.47,117.8c1.57-1.1,3.35-3.2,5.32-6.28c2.21-3.49,3.32-6.43,3.32-8.82
		c-1.28,0.76-2.56,2.14-3.84,4.15c-1.28,2.01-2.37,4.07-3.27,6.2C193.09,115.16,192.58,116.75,192.47,117.8z"/>
	<path class="st1" d="M215.94,78.3c4.02-0.9,10.21-2.63,18.59-5.19l8.47-2.36l1.05-0.26c2.91-7.8,5.61-11.93,8.12-12.39
		c0.7,0,1.41,0.17,2.14,0.52c0.73,0.35,1.15,0.9,1.27,1.66v0.61l-1.66,7.16c10.59-2.27,21.35-3.4,32.3-3.4
		c9.08,0,16.79,1.31,23.13,3.93c0.7,0.35,1.05,0.73,1.05,1.13c0,0.58-0.35,0.87-1.05,0.87c-0.41,0-1.02-0.17-1.83-0.52h-0.17
		l-4.89-1.4c-6.63-1.57-13.41-2.36-20.34-2.36c-1.28,0-4.34,0.12-9.17,0.35c-4.83,0.23-11.32,1.31-19.46,3.23
		c-1.92,8.55-3.35,14.49-4.28,17.81c-2.91,11.06-4.98,21.53-6.2,31.42c-0.82,6.17-1.22,11.61-1.22,16.32
		c0,8.73,1.16,14.93,3.49,18.59c1.1,1.51,2.15,2.27,3.14,2.27c1.4,0,2.88-1.13,4.45-3.4c2.97-4.42,6.72-14.08,11.26-28.98l2.71-8.82
		c0.52-1.86,1.1-2.79,1.75-2.79c0.46,0,0.7,0.44,0.7,1.31v0.61c-0.47,2.68-2.79,10.47-6.98,23.39c-2.79,8.67-5.35,14.46-7.68,17.37
		c-1.92,2.5-4.1,3.75-6.55,3.75c-1.57,0-3.32-0.64-5.24-1.92c-1.34-0.93-2.47-2.04-3.4-3.32c-2.15-2.85-3.67-5.91-4.54-9.17
		c-1.05-3.84-1.57-9.25-1.57-16.24c0-12.51,2.65-28.72,7.94-48.62c0.41-1.75,1.1-4.07,2.1-6.98l-4.71,1.48
		c-8.44,2.97-14.66,4.98-18.68,6.02c-4.42,1.22-8.35,1.83-11.78,1.83c-3.08,0-5.66-0.8-7.73-2.4c-2.06-1.6-3.1-3.77-3.1-6.5
		c0-0.87,0.12-1.77,0.35-2.71c0.41-1.92,0.99-2.88,1.75-2.88c0.23,0,0.52,0.17,0.87,0.52c0.58,0.58,0.87,1.43,0.87,2.53
		c0,0.52-0.06,1.03-0.17,1.53c-0.12,0.5-0.2,0.95-0.26,1.35c0,4.25,2.36,6.37,7.07,6.37C209.22,79.65,211.93,79.2,215.94,78.3z"/>
	<path class="st1" d="M293.8,148.61c-1.57,0-3.32-0.5-5.24-1.48c-2.44-1.51-4.1-4.25-4.98-8.21l-0.52-1.66
		c-0.58-1.98-0.87-4.31-0.87-6.98c0-4.02,0.41-7.97,1.22-11.87c0.12-0.64,0.26-1.21,0.44-1.7c0.17-0.49,0.29-1.06,0.35-1.7
		c-0.76,0.64-1.6,1.78-2.53,3.4c-1.63,2.74-3.06,6.08-4.28,10.04l-1.13,3.75c-0.87,2.62-1.75,3.93-2.62,3.93
		c-0.82,0-1.66-0.32-2.53-0.96c-0.47-0.35-0.9-1.02-1.31-2.01l-0.09-0.17c-1.75-4.65-2.62-9.98-2.62-15.97
		c0-4.6,0.55-9.14,1.66-13.62c2.39-11.4,6.31-21.27,11.78-29.59c1.45-2.38,3.61-4.89,6.46-7.51c3.26-2.97,6.28-4.45,9.08-4.45
		c2.62,0,4.51,0.64,5.67,1.92c1.34,1.63,2.01,3.78,2.01,6.46c0,2.27-0.41,4.71-1.22,7.33c-1.69,5.64-4.96,11.59-9.82,17.85
		c-4.86,6.26-8.89,10.63-12.09,13.14c-0.82,0.64-1.72,1.22-2.71,1.75c-0.7,0.41-1.31,0.82-1.83,1.22
		c-1.16,0.93-1.75,6.46-1.75,16.58c0.23-0.35,0.38-0.55,0.44-0.61c0.06-0.06,0.1-0.16,0.13-0.3c0.03-0.14,0.39-1.09,1.09-2.84
		c1.69-4.02,3.67-7.51,5.94-10.47c2.73-3.55,5-5.32,6.81-5.32c0.81,0,1.58,0.23,2.31,0.7c0.73,0.47,1.24,1.02,1.53,1.66
		c0.29,0.64,0.46,1.34,0.52,2.09c0,0.76-0.06,1.54-0.17,2.36l-0.09,0.26c-0.35,2.97-0.82,5.88-1.4,8.73
		c-1.22,5.64-1.83,10.15-1.83,13.53c0,5.29,1.25,7.94,3.75,7.94c0.29,0,0.89-0.1,1.79-0.31c0.9-0.2,2.49-1.7,4.76-4.5
		c2.44-3.2,5.15-8.93,8.12-17.2c0.81-1.92,1.56-3.96,2.23-6.11c0.67-2.15,1.09-3.43,1.27-3.84c0.29-1.05,0.79-1.57,1.48-1.57
		c0.52,0,0.79,0.32,0.79,0.96c0,0.7-0.52,2.53-1.57,5.5c-0.35,0.99-0.64,1.92-0.87,2.79c-3.26,10.71-6.4,18.07-9.43,22.08
		C299.47,146.95,296.77,148.61,293.8,148.61z M276.43,108.28c3.61-1.92,7.14-4.93,10.61-9.03c3.46-4.1,6.53-8.39,9.21-12.88
		c3.49-5.88,5.24-11.67,5.24-17.37c0-1.69-0.34-2.98-1-3.88c-0.67-0.9-1.56-1.35-2.66-1.35c-0.99,0-2.01,0.41-3.05,1.22
		c-3.26,2.5-6.26,6.43-8.99,11.78l-0.26,0.52c-1.05,2.09-1.8,3.75-2.27,4.97c-2.1,5.76-3.46,9.89-4.1,12.39l-0.26,1.22
		C277.25,102.05,276.43,106.19,276.43,108.28z"/>
	<path class="st1" d="M321.3,136.39c-1.46,0-2.85-0.35-4.19-1.05c-2.62-1.34-4.6-3.17-5.94-5.5c-0.87-1.75-1.35-2.92-1.44-3.54
		c-0.09-0.61-0.22-1.38-0.39-2.31l-0.09-1.66c0-1.92,0.29-3.87,0.87-5.85c1.22-4.83,3.87-9.19,7.94-13.09
		c2.73-2.56,5.35-3.84,7.86-3.84c1.22,0,2.38,0.38,3.49,1.13c1.1,0.76,1.66,1.72,1.66,2.88c0,1.69-0.52,3.46-1.57,5.32
		c-2.62,4.66-5.85,8.64-9.69,11.96c-0.99,0.82-1.57,1.37-1.75,1.66c-0.41,0.99-0.61,2.68-0.61,5.06c0,3.03,0.55,4.89,1.66,5.59
		c0.81,0.41,1.75,0.61,2.79,0.61c1.69,0,3.71-1.1,6.07-3.32c2.36-2.21,4.79-5.47,7.29-9.78c1.69-2.85,3.11-5.35,4.28-7.51
		c0.46-0.7,0.9-1.05,1.31-1.05c0.46,0,0.7,0.29,0.7,0.87c0,0.52-0.26,1.34-0.79,2.44l-0.52,1.13c-3.32,6.87-6.46,11.89-9.43,15.06
		S324.67,136.39,321.3,136.39z M319.38,117.8c1.57-1.1,3.35-3.2,5.32-6.28c2.21-3.49,3.32-6.43,3.32-8.82
		c-1.28,0.76-2.56,2.14-3.84,4.15c-1.28,2.01-2.37,4.07-3.27,6.2C320,115.16,319.49,116.75,319.38,117.8z"/>
	<path class="st1" d="M381.35,172.09h-0.87c-2.44,0-4.54-0.67-6.29-2.01c-1.75-1.34-3.07-3.17-3.97-5.5
		c-0.9-2.33-1.35-4.74-1.35-7.24c0-2.44,0.58-4.92,1.75-7.42c2.27-4.77,6.05-9.37,11.35-13.79c4.95-4.25,10.1-7.71,15.45-10.39
		c3.9-1.98,6.87-3.2,8.9-3.67c0.7-0.17,1.21-0.35,1.53-0.52c0.32-0.17,0.54-0.47,0.65-0.87c1.51-4.66,2.27-11.32,2.27-19.99
		c0-11.35-1.31-21.09-3.93-29.24c-2.56-7.68-6.02-11.52-10.39-11.52c-0.41,0-1.28,0.12-2.62,0.35c-1.34,0.23-3.46,1.72-6.37,4.45
		c-2.74,2.74-5,6.2-6.81,10.39c-3.26,7.57-5.47,16.12-6.63,25.66l-2.27,28.98c0,1.34-0.03,2.23-0.09,2.66
		c-0.06,0.44-0.33,0.71-0.83,0.83c-0.5,0.12-1.27,0.17-2.31,0.17c-1.05,0-1.89-0.52-2.53-1.57c-1.34-1.86-2.27-4.63-2.79-8.29
		c-1.34-7.27-2.01-16.12-2.01-26.53c0-6.63,0.32-12.6,0.96-17.89c0.52-3.14,1.75-4.71,3.67-4.71c0.93,0,1.8,0.64,2.62,1.92
		c0.87,1.75,1.45,7.16,1.75,16.24l0.17,9.17c0,1.57,0.03,2.43,0.09,2.58c0.06,0.15,0.12,0.22,0.17,0.22l0.17-0.35
		c0.06-0.23,0.12-0.79,0.17-1.66c0.64-4.54,1.51-9.22,2.62-14.05c2.04-9.19,5.21-16.73,9.51-22.61c3.96-5.41,8.64-8.12,14.05-8.12
		c4.48,0,8.09,1.66,10.82,4.98c3.72,4.6,6.58,11.26,8.55,19.99c1.69,7.45,2.53,14,2.53,19.64c0,3.49-0.23,7.01-0.7,10.56
		c-0.23,1.69-0.38,3.29-0.44,4.8c8.79-3.55,13.22-5.32,13.31-5.32c0.09,0,0.16-0.03,0.22-0.09c0.35-0.12,0.64-0.17,0.87-0.17
		c0.23,0,0.39,0.04,0.48,0.13c0.09,0.09,0.13,0.19,0.13,0.31c0,0.41-0.38,0.84-1.13,1.31l-11.96,5.41c-0.82,0.29-1.4,0.55-1.75,0.79
		c-0.58,0.41-1.02,1.48-1.31,3.23c-0.17,1.05-0.52,2.62-1.05,4.71c-1.34,5.41-2.97,10.21-4.89,14.4c-1.92,4.19-4.42,8.58-7.51,13.18
		c-1.46,2.27-3.35,4.63-5.67,7.07C391.97,168.54,386.53,171.68,381.35,172.09z M380.65,169.82c3.14,0,6.25-1.78,9.34-5.32
		c4.54-5.18,8.73-12.51,12.57-22c3.55-8.85,5.32-15.13,5.32-18.85c-0.99,0.47-2.01,0.9-3.05,1.31c-3.49,1.4-7.1,3.14-10.82,5.24
		c-8.55,4.83-14.84,10.33-18.85,16.5c-2.5,3.78-3.75,7.59-3.75,11.43c0,1.92,0.41,3.85,1.22,5.8c0.81,1.95,2.09,3.5,3.84,4.67
		C377.68,169.41,379.08,169.82,380.65,169.82z"/>
	<path class="st1" d="M460.78,142.5c-1.34,0-2.79-0.65-4.36-1.96s-2.94-3.61-4.1-6.9c-1.16-3.29-1.75-6.85-1.75-10.69
		c-0.23,0.17-0.64,0.71-1.22,1.61c-0.58,0.9-1.66,2.66-3.23,5.28c-0.82,1.69-1.98,3.32-3.49,4.89c-1.22,1.16-2.42,1.75-3.58,1.75
		c-1.8,0-3.49-1.02-5.06-3.06c-2.15-2.79-3.23-6.6-3.23-11.43c0-0.87,0.09-2.41,0.26-4.63c0.17-2.21,0.9-4.93,2.18-8.16
		c1.28-3.23,3-5.85,5.15-7.86c2.15-2.01,4.36-3.01,6.63-3.01c3.55,0,6.02,1.72,7.42,5.15l1.4,2.79c0.46-2.04,1.42-4.42,2.88-7.16
		l0.09-0.17c1.69-3.37,3.37-5.12,5.06-5.24c0.99,0,1.75,0.31,2.27,0.92c0.52,0.61,0.79,1.41,0.79,2.4c0,0.35-0.67,2.62-2.01,6.81
		c-2.09,7.68-3.38,12.54-3.84,14.58c-1.17,5.24-1.75,9.63-1.75,13.18c0,5.35,1.19,8.03,3.58,8.03c2.44,0,4.83-2.21,7.16-6.63
		c4.31-7.8,7.1-13.85,8.38-18.16c0.64-1.57,1.25-2.41,1.83-2.53c0.23,0,0.42,0.07,0.57,0.22c0.14,0.15,0.22,0.3,0.22,0.48
		c0,0.58-0.64,2.39-1.92,5.41c-3.03,7.16-5.3,12.25-6.81,15.27C467.26,139.56,464.09,142.5,460.78,142.5z M439.39,133.33
		c1.22,0,3.2-2.07,5.94-6.2c2.56-3.9,4.31-7.01,5.24-9.34c0.64-1.75,0.96-3.84,0.96-6.28c0-2.44-0.29-4.54-0.87-6.29
		c-0.87-2.21-1.69-3.32-2.44-3.32c-0.82,0-1.83,1.31-3.06,3.93c-1.57,3.14-2.97,6.95-4.19,11.43c-1.92,6.75-2.88,11.29-2.88,13.62
		C438.08,132.52,438.52,133.33,439.39,133.33z"/>
	<path class="st1" d="M458.07,78.3c4.01-0.9,10.21-2.63,18.59-5.19l8.47-2.36l1.05-0.26c2.91-7.8,5.62-11.93,8.12-12.39
		c0.7,0,1.41,0.17,2.14,0.52c0.73,0.35,1.15,0.9,1.27,1.66v0.61l-1.66,7.16c10.59-2.27,21.36-3.4,32.3-3.4
		c9.08,0,16.79,1.31,23.13,3.93c0.7,0.35,1.05,0.73,1.05,1.13c0,0.58-0.35,0.87-1.05,0.87c-0.41,0-1.02-0.17-1.83-0.52h-0.17
		l-4.89-1.4c-6.63-1.57-13.41-2.36-20.34-2.36c-1.28,0-4.33,0.12-9.17,0.35c-4.83,0.23-11.32,1.31-19.46,3.23
		c-1.92,8.55-3.35,14.49-4.28,17.81c-2.91,11.06-4.98,21.53-6.2,31.42c-0.82,6.17-1.22,11.61-1.22,16.32
		c0,8.73,1.16,14.93,3.49,18.59c1.1,1.51,2.15,2.27,3.14,2.27c1.4,0,2.88-1.13,4.45-3.4c2.97-4.42,6.72-14.08,11.26-28.98l2.71-8.82
		c0.52-1.86,1.1-2.79,1.75-2.79c0.47,0,0.7,0.44,0.7,1.31v0.61c-0.47,2.68-2.79,10.47-6.98,23.39c-2.79,8.67-5.35,14.46-7.68,17.37
		c-1.92,2.5-4.1,3.75-6.55,3.75c-1.57,0-3.32-0.64-5.24-1.92c-1.34-0.93-2.47-2.04-3.4-3.32c-2.15-2.85-3.67-5.91-4.54-9.17
		c-1.05-3.84-1.57-9.25-1.57-16.24c0-12.51,2.65-28.72,7.94-48.62c0.41-1.75,1.1-4.07,2.09-6.98l-4.71,1.48
		c-8.44,2.97-14.66,4.98-18.68,6.02c-4.42,1.22-8.35,1.83-11.78,1.83c-3.08,0-5.66-0.8-7.72-2.4c-2.07-1.6-3.1-3.77-3.1-6.5
		c0-0.87,0.12-1.77,0.35-2.71c0.41-1.92,0.99-2.88,1.75-2.88c0.23,0,0.52,0.17,0.87,0.52c0.58,0.58,0.87,1.43,0.87,2.53
		c0,0.52-0.06,1.03-0.17,1.53c-0.12,0.5-0.2,0.95-0.26,1.35c0,4.25,2.36,6.37,7.07,6.37C451.35,79.65,454.06,79.2,458.07,78.3z"/>
	<path class="st1" d="M519.26,136.39c-1.46,0-2.85-0.35-4.19-1.05c-2.62-1.34-4.6-3.17-5.94-5.5c-0.87-1.75-1.35-2.92-1.44-3.54
		c-0.09-0.61-0.22-1.38-0.39-2.31l-0.09-1.66c0-1.92,0.29-3.87,0.87-5.85c1.22-4.83,3.87-9.19,7.94-13.09
		c2.73-2.56,5.35-3.84,7.86-3.84c1.22,0,2.38,0.38,3.49,1.13c1.1,0.76,1.66,1.72,1.66,2.88c0,1.69-0.52,3.46-1.57,5.32
		c-2.62,4.66-5.85,8.64-9.69,11.96c-0.99,0.82-1.57,1.37-1.75,1.66c-0.41,0.99-0.61,2.68-0.61,5.06c0,3.03,0.55,4.89,1.66,5.59
		c0.81,0.41,1.75,0.61,2.79,0.61c1.69,0,3.71-1.1,6.07-3.32c2.36-2.21,4.79-5.47,7.29-9.78c1.69-2.85,3.11-5.35,4.28-7.51
		c0.46-0.7,0.9-1.05,1.31-1.05c0.46,0,0.7,0.29,0.7,0.87c0,0.52-0.26,1.34-0.79,2.44l-0.52,1.13c-3.32,6.87-6.46,11.89-9.43,15.06
		S522.63,136.39,519.26,136.39z M517.34,117.8c1.57-1.1,3.35-3.2,5.32-6.28c2.21-3.49,3.32-6.43,3.32-8.82
		c-1.28,0.76-2.56,2.14-3.84,4.15c-1.28,2.01-2.37,4.07-3.27,6.2C517.96,115.16,517.45,116.75,517.34,117.8z"/>
</g>
<g>
	<path class="st1" d="M486.94,289.15c-0.55,0-1-0.45-1-1v-2.2c0-0.55,0.45-1,1-1s1,0.45,1,1v2.2
		C487.94,288.71,487.49,289.15,486.94,289.15z M486.94,282.96c-0.55,0-1-0.45-1-1v-3c0-0.55,0.45-1,1-1s1,0.45,1,1v3
		C487.94,282.51,487.49,282.96,486.94,282.96z M486.94,275.96c-0.55,0-1-0.45-1-1v-3c0-0.55,0.45-1,1-1s1,0.45,1,1v3
		C487.94,275.51,487.49,275.96,486.94,275.96z M486.94,268.96c-0.55,0-1-0.45-1-1v-3c0-0.55,0.45-1,1-1s1,0.45,1,1v3
		C487.94,268.51,487.49,268.96,486.94,268.96z M486.94,261.96c-0.55,0-1-0.45-1-1v-3c0-0.55,0.45-1,1-1s1,0.45,1,1v3
		C487.94,261.51,487.49,261.96,486.94,261.96z M486.94,254.96c-0.55,0-1-0.45-1-1v-3c0-0.55,0.45-1,1-1s1,0.45,1,1v3
		C487.94,254.51,487.49,254.96,486.94,254.96z M486.94,247.96c-0.55,0-1-0.45-1-1v-3c0-0.55,0.45-1,1-1s1,0.45,1,1v3
		C487.94,247.51,487.49,247.96,486.94,247.96z M486.94,240.96c-0.55,0-1-0.45-1-1v-3c0-0.55,0.45-1,1-1s1,0.45,1,1v3
		C487.94,240.51,487.49,240.96,486.94,240.96z M486.94,233.96c-0.55,0-1-0.45-1-1v-3c0-0.55,0.45-1,1-1s1,0.45,1,1v3
		C487.94,233.51,487.49,233.96,486.94,233.96z M486.94,226.96c-0.55,0-1-0.45-1-1v-3c0-0.55,0.45-1,1-1s1,0.45,1,1v3
		C487.94,226.51,487.49,226.96,486.94,226.96z M486.94,219.96c-0.55,0-1-0.45-1-1v-3c0-0.55,0.45-1,1-1s1,0.45,1,1v3
		C487.94,219.51,487.49,219.96,486.94,219.96z M486.94,212.96c-0.55,0-1-0.45-1-1v-3c0-0.55,0.45-1,1-1s1,0.45,1,1v3
		C487.94,212.51,487.49,212.96,486.94,212.96z M486.94,205.96c-0.55,0-1-0.45-1-1v-3c0-0.55,0.45-1,1-1s1,0.45,1,1v3
		C487.94,205.51,487.49,205.96,486.94,205.96z M486.94,198.96c-0.55,0-1-0.45-1-1v-3c0-0.55,0.45-1,1-1s1,0.45,1,1v3
		C487.94,198.51,487.49,198.96,486.94,198.96z M486.94,191.96c-0.55,0-1-0.45-1-1v-3c0-0.55,0.45-1,1-1s1,0.45,1,1v3
		C487.94,191.51,487.49,191.96,486.94,191.96z"/>
</g>
<g>
	<path class="st1" d="M238.27,289.15c-0.55,0-1-0.45-1-1v-2.2c0-0.55,0.45-1,1-1s1,0.45,1,1v2.2
		C239.27,288.71,238.82,289.15,238.27,289.15z M238.27,282.96c-0.55,0-1-0.45-1-1v-3c0-0.55,0.45-1,1-1s1,0.45,1,1v3
		C239.27,282.51,238.82,282.96,238.27,282.96z M238.27,275.96c-0.55,0-1-0.45-1-1v-3c0-0.55,0.45-1,1-1s1,0.45,1,1v3
		C239.27,275.51,238.82,275.96,238.27,275.96z M238.27,268.96c-0.55,0-1-0.45-1-1v-3c0-0.55,0.45-1,1-1s1,0.45,1,1v3
		C239.27,268.51,238.82,268.96,238.27,268.96z M238.27,261.96c-0.55,0-1-0.45-1-1v-3c0-0.55,0.45-1,1-1s1,0.45,1,1v3
		C239.27,261.51,238.82,261.96,238.27,261.96z M238.27,254.96c-0.55,0-1-0.45-1-1v-3c0-0.55,0.45-1,1-1s1,0.45,1,1v3
		C239.27,254.51,238.82,254.96,238.27,254.96z M238.27,247.96c-0.55,0-1-0.45-1-1v-3c0-0.55,0.45-1,1-1s1,0.45,1,1v3
		C239.27,247.51,238.82,247.96,238.27,247.96z M238.27,240.96c-0.55,0-1-0.45-1-1v-3c0-0.55,0.45-1,1-1s1,0.45,1,1v3
		C239.27,240.51,238.82,240.96,238.27,240.96z M238.27,233.96c-0.55,0-1-0.45-1-1v-3c0-0.55,0.45-1,1-1s1,0.45,1,1v3
		C239.27,233.51,238.82,233.96,238.27,233.96z M238.27,226.96c-0.55,0-1-0.45-1-1v-3c0-0.55,0.45-1,1-1s1,0.45,1,1v3
		C239.27,226.51,238.82,226.96,238.27,226.96z M238.27,219.96c-0.55,0-1-0.45-1-1v-3c0-0.55,0.45-1,1-1s1,0.45,1,1v3
		C239.27,219.51,238.82,219.96,238.27,219.96z M238.27,212.96c-0.55,0-1-0.45-1-1v-3c0-0.55,0.45-1,1-1s1,0.45,1,1v3
		C239.27,212.51,238.82,212.96,238.27,212.96z M238.27,205.96c-0.55,0-1-0.45-1-1v-3c0-0.55,0.45-1,1-1s1,0.45,1,1v3
		C239.27,205.51,238.82,205.96,238.27,205.96z M238.27,198.96c-0.55,0-1-0.45-1-1v-3c0-0.55,0.45-1,1-1s1,0.45,1,1v3
		C239.27,198.51,238.82,198.96,238.27,198.96z M238.27,191.96c-0.55,0-1-0.45-1-1v-3c0-0.55,0.45-1,1-1s1,0.45,1,1v3
		C239.27,191.51,238.82,191.96,238.27,191.96z"/>
</g>
</svg>
