<?xml version="1.0" encoding="UTF-8" standalone="no"?>
<svg
   xmlns:dc="http://purl.org/dc/elements/1.1/"
   xmlns:cc="http://creativecommons.org/ns#"
   xmlns:rdf="http://www.w3.org/1999/02/22-rdf-syntax-ns#"
   xmlns:svg="http://www.w3.org/2000/svg"
   xmlns="http://www.w3.org/2000/svg"
   xmlns:sodipodi="http://sodipodi.sourceforge.net/DTD/sodipodi-0.dtd"
   xmlns:inkscape="http://www.inkscape.org/namespaces/inkscape"
   version="1.1"
   id="Layer_1"
   x="0px"
   y="0px"
   viewBox="0 0 600 314.37"
   style="enable-background:new 0 0 600 314.37;"
   xml:space="preserve"
   sodipodi:docname="Boda-May-02.svg"
   inkscape:version="1.0.1 (3bc2e813f5, 2020-09-07)"><metadata
   id="metadata137"><rdf:RDF><cc:Work
       rdf:about=""><dc:format>image/svg+xml</dc:format><dc:type
         rdf:resource="http://purl.org/dc/dcmitype/StillImage" /><dc:title></dc:title></cc:Work></rdf:RDF></metadata><defs
   id="defs135" /><sodipodi:namedview
   pagecolor="#ffffff"
   bordercolor="#666666"
   borderopacity="1"
   objecttolerance="10"
   gridtolerance="10"
   guidetolerance="10"
   inkscape:pageopacity="0"
   inkscape:pageshadow="2"
   inkscape:window-width="1920"
   inkscape:window-height="1001"
   id="namedview133"
   showgrid="false"
   inkscape:zoom="1.4377838"
   inkscape:cx="273.72121"
   inkscape:cy="168.71701"
   inkscape:window-x="-9"
   inkscape:window-y="-9"
   inkscape:window-maximized="1"
   inkscape:current-layer="Layer_1" />
<style
   type="text/css"
   id="style2">
	.st0{opacity:0.3;}
	.st1{fill:#201600;}
	.st2{opacity:0.88;}
	.st3{fill:#CB2229;}
	.st4{fill:#272525;}
	
		.st5{opacity:0.8;fill:none;stroke:#201600;stroke-width:2;stroke-linecap:round;stroke-linejoin:round;stroke-miterlimit:10;stroke-dasharray:3,4;}
</style>
<g
   class="st2"
   id="g26"
   transform="matrix(0.78220495,0,0,0.78220495,144.1797,55.324774)">
	<path
   class="st1"
   d="m 274.47,196.66 v 22.84 h -3.51 v -12.4 l -7.42,12.03 h -0.03 l -7.43,-12.04 v 12.41 h -3.51 v -22.84 h 0.26 l 10.69,16.26 10.68,-16.26 z"
   id="path4" />
	<path
   class="st1"
   d="M 292.28,216.11 H 281.7 l -1.53,3.4 h -3.8 l 10.51,-22.82 h 0.21 l 10.51,22.82 h -3.8 z m -1.36,-3.01 -3.93,-8.74 -3.94,8.74 z"
   id="path6" />
	<path
   class="st1"
   d="m 300.25,209.95 -7.42,-12.8 h 3.95 l 5.2,8.9 5.22,-8.9 h 3.95 l -7.42,12.8 v 9.56 h -3.48 z"
   id="path8" />
	<path
   class="st1"
   d="m 325.35,219.51 -6.02,-8.66 h -2.75 v 8.66 h -3.51 l -0.01,-22.36 h 6.95 c 4.16,0 7.57,3.2 7.57,7.18 0,2.88 -1.86,5.4 -4.42,6.23 l 6.51,8.95 z m -5.26,-11.57 c 2.11,0.01 3.87,-1.69 3.87,-3.69 0,-2.08 -1.79,-3.62 -3.87,-3.62 h -3.52 v 7.31 z"
   id="path10" />
	<path
   class="st1"
   d="m 345.53,216.11 h -10.58 l -1.53,3.4 h -3.8 l 10.51,-22.82 h 0.21 l 10.51,22.82 h -3.8 z m -1.36,-3.01 -3.93,-8.74 -3.94,8.74 z"
   id="path12" />
	<path
   class="st1"
   d="m 379.14,219.7 c -1.54,-0.01 -3.58,-0.92 -5.71,-2.34 -1.65,1.68 -3.84,2.58 -6.34,2.58 -5.06,0 -7.64,-3.68 -7.64,-6.98 0,-2.7 1.79,-5.28 3.77,-6.45 -0.85,-1.57 -1.36,-3.04 -1.36,-4.29 0,-2.77 2.57,-5.63 5.91,-5.63 3.02,0 5.41,2.34 5.83,5.02 l -3.4,0.64 c -0.17,-1.36 -1.28,-2.41 -2.54,-2.41 -1.29,0 -2.33,1.1 -2.33,2.51 0,2.59 3.47,7.09 7.12,10.29 0.54,-1.21 0.86,-2.68 0.93,-4.31 l 3.3,-0.04 c -0.06,2.57 -0.58,4.76 -1.46,6.5 1.53,1.03 2.91,1.65 3.94,1.65 z m -8.53,-4.5 c -2.12,-1.8 -4.16,-3.95 -5.73,-6.1 -1.33,0.94 -2.11,2.19 -2.11,3.65 0,2.12 1.43,3.76 4.13,3.76 1.47,-0.01 2.72,-0.47 3.71,-1.31 z"
   id="path14" />
	<path
   class="st1"
   d="m 387.63,218.4 1.78,-3.09 c 0.83,0.71 2.01,1.14 3.27,1.14 h 0.1 c 3,0 5.44,-2.52 5.44,-5.49 l -0.07,-13.8 3.51,0.01 0.07,13.81 c 0,5.01 -3.98,8.96 -8.92,8.96 h -0.15 c -1.81,0 -3.63,-0.57 -5.03,-1.54 z"
   id="path16" />
	<path
   class="st1"
   d="m 404.16,208.36 c 0,-6.38 5.19,-11.6 11.55,-11.6 6.35,0 11.57,5.21 11.57,11.6 0,6.32 -5.21,11.51 -11.58,11.51 -6.35,0 -11.54,-5.19 -11.54,-11.51 z m 19.57,-0.03 c 0,-4.42 -3.62,-8.03 -8.03,-8.03 -4.41,0 -8,3.61 -8,8.03 0,4.4 3.59,7.99 8,7.99 4.41,0 8.03,-3.59 8.03,-7.99 z"
   id="path18" />
	<path
   class="st1"
   d="m 442.21,219.51 -6.02,-8.66 h -2.75 v 8.66 h -3.51 l -0.01,-22.36 h 6.95 c 4.16,0 7.57,3.2 7.57,7.18 0,2.88 -1.86,5.4 -4.42,6.23 l 6.51,8.95 z m -5.25,-11.57 c 2.11,0.01 3.87,-1.69 3.87,-3.69 0,-2.08 -1.79,-3.62 -3.87,-3.62 h -3.52 v 7.31 z"
   id="path20" />
	<path
   class="st1"
   d="m 466.21,208.36 c 0,6.87 -4.42,11.15 -11.53,11.15 h -6.37 v -22.36 h 6.37 c 7.1,-0.01 11.53,4.29 11.53,11.21 z m -3.56,-0.02 c 0,-4.74 -3.08,-7.71 -7.99,-7.71 h -2.86 v 15.38 h 2.9 c 4.89,0 7.95,-2.95 7.95,-7.67 z"
   id="path22" />
	<path
   class="st1"
   d="m 468.85,197.15 h 3.51 v 22.36 h -3.51 z"
   id="path24" />
</g>
<g
   class="st2"
   id="g66"
   transform="matrix(0.78220495,0,0,0.78220495,144.1797,55.324774)">
	<g
   id="g64">
		<path
   class="st1"
   d="m 256.12,235.23 v 15.67 h -2.44 v -12.54 l -2.1,0.63 v -2.54 l 3.82,-1.21 h 0.72 z"
   id="path28" />
		<path
   class="st1"
   d="m 257.97,246.24 c 0,-2.37 1.83,-3.93 3.13,-4.11 -1.18,-0.24 -2.31,-1.51 -2.31,-3.07 0,-2.05 1.86,-3.95 4.48,-3.95 2.61,0 4.49,1.87 4.49,3.95 0,1.65 -1.28,2.86 -2.3,3.07 1.18,0.21 3.1,1.72 3.1,4.12 0,2.63 -2.21,4.89 -5.3,4.89 -3.12,0 -5.29,-2.29 -5.29,-4.9 z m 8.13,-0.14 c 0,-1.43 -1.3,-2.62 -2.83,-2.62 -1.54,0 -2.87,1.18 -2.87,2.64 0,1.44 1.25,2.6 2.84,2.6 1.59,0 2.86,-1.16 2.86,-2.62 z m -0.7,-6.87 c 0,-1.17 -0.95,-1.86 -2.13,-1.86 -1.18,0 -2.13,0.69 -2.13,1.84 0,1.13 0.99,1.83 2.13,1.83 1.08,0 2.13,-0.63 2.13,-1.81 z"
   id="path30" />
		<path
   class="st1"
   d="m 276.54,243.36 c 0,-1.45 1.19,-2.66 2.67,-2.66 1.46,0 2.66,1.19 2.66,2.65 0,1.46 -1.2,2.64 -2.67,2.64 -1.47,0 -2.66,-1.17 -2.66,-2.63 z"
   id="path32" />
		<path
   class="st1"
   d="m 289.7,248.17 1.93,-1.38 c 0.69,1.21 1.98,1.91 3.48,1.91 1.74,0 3.06,-0.84 3.06,-2.02 0,-1.43 -2.04,-2.3 -3.85,-3.08 -1.82,-0.81 -3.84,-1.75 -3.84,-4.19 0,-2.54 2.21,-4.31 5,-4.31 2.21,0 3.87,1.07 4.51,2.77 l -1.81,1.25 c -0.48,-1.05 -1.55,-1.64 -2.68,-1.64 -1.43,0 -2.56,0.89 -2.56,1.98 0,1.21 1.43,1.65 3.32,2.46 2.46,1.08 4.36,2.26 4.36,4.71 0,2.75 -2.39,4.53 -5.54,4.53 -2.56,-0.01 -4.49,-1.2 -5.38,-2.99 z"
   id="path34" />
		<path
   class="st1"
   d="m 304.74,237.77 v 3.98 h 5.87 v 2.43 h -5.87 v 4.29 h 6.81 v 2.43 h -9.24 v -15.52 h 9.24 v 2.4 h -6.81 z"
   id="path36" />
		<path
   class="st1"
   d="m 313.67,235.37 h 5.19 c 3,0 5.46,2.3 5.46,5.12 0,2.76 -2.46,5.02 -5.46,5.02 h -2.75 v 5.38 h -2.44 z m 8.22,5.1 c 0,-1.48 -1.36,-2.69 -3.02,-2.69 h -2.75 v 5.31 l 2.75,0.01 c 1.66,0.01 3.02,-1.17 3.02,-2.63 z"
   id="path38" />
		<path
   class="st1"
   d="m 335.58,237.79 h -4.16 v 13.1 h -2.45 v -13.1 h -4.16 v -2.42 h 10.76 v 2.42 z"
   id="path40" />
		<path
   class="st1"
   d="m 337.11,235.37 h 2.44 v 15.52 h -2.44 z"
   id="path42" />
		<path
   class="st1"
   d="m 344.57,237.77 v 3.98 h 5.87 v 2.43 h -5.87 v 4.29 h 6.81 v 2.43 h -9.24 v -15.52 h 9.24 v 2.4 h -6.81 z"
   id="path44" />
		<path
   class="st1"
   d="m 368.71,235.04 v 15.86 h -2.44 v -8.61 l -5.15,8.35 h -0.02 l -5.16,-8.36 v 8.62 h -2.44 v -15.86 h 0.18 l 7.42,11.28 7.41,-11.28 z"
   id="path46" />
		<path
   class="st1"
   d="m 381.98,246.17 c 0,2.38 -1.8,4.73 -4.88,4.73 h -5.81 v -15.52 h 4.24 c 2.68,0 4.49,1.93 4.49,3.99 0,1.68 -1.17,2.79 -1.74,2.79 1.74,-0.01 3.7,1.59 3.7,4.01 z m -8.26,-8.43 v 3.87 l 1.93,-0.01 c 1.2,0.01 2.09,-0.82 2.09,-1.93 0,-1.11 -0.96,-1.94 -2.06,-1.94 h -1.96 z m 5.88,8.26 c 0,-1.17 -1,-2.25 -2.76,-2.25 l -3.12,0.01 v 4.76 h 3.16 c 1.39,-0.01 2.72,-1.02 2.72,-2.52 z"
   id="path48" />
		<path
   class="st1"
   d="m 392.04,250.89 -4.18,-6.01 h -1.91 v 6.01 h -2.44 l -0.01,-15.52 h 4.82 c 2.89,0 5.26,2.22 5.26,4.99 0,2 -1.29,3.75 -3.07,4.32 l 4.52,6.21 z m -3.64,-8.03 c 1.46,0.01 2.69,-1.17 2.69,-2.56 0,-1.44 -1.24,-2.51 -2.69,-2.51 h -2.45 v 5.07 z"
   id="path50" />
		<path
   class="st1"
   d="m 398.71,237.77 v 3.98 h 5.87 v 2.43 h -5.87 v 4.29 h 6.81 v 2.43 h -9.24 v -15.52 h 9.24 v 2.4 h -6.81 z"
   id="path52" />
		<path
   class="st1"
   d="m 413.8,243.36 c 0,-1.45 1.19,-2.66 2.67,-2.66 1.46,0 2.66,1.19 2.66,2.65 0,1.46 -1.2,2.64 -2.67,2.64 -1.47,0 -2.66,-1.17 -2.66,-2.63 z"
   id="path54" />
		<path
   class="st1"
   d="m 438.74,248.47 v 2.43 h -11.63 v -0.52 c 6.38,-5.17 8.98,-7.86 8.98,-9.74 0,-1.75 -1.42,-3.05 -2.91,-3.05 -1.81,0 -3.26,1.44 -3.26,3.31 l -2.22,-0.54 c 0,-2.92 2.42,-5.21 5.41,-5.21 3.04,0 5.43,2.5 5.43,5.36 0,2.69 -2.73,5.72 -6.25,7.96 z"
   id="path56" />
		<path
   class="st1"
   d="m 439.83,243.13 c 0,-4.68 2.56,-7.99 6.33,-7.99 3.77,0 6.34,3.31 6.34,7.99 0,4.67 -2.56,7.98 -6.34,7.98 -3.76,0 -6.33,-3.31 -6.33,-7.98 z m 10.23,0 c 0,-3.24 -1.56,-5.55 -3.9,-5.55 -2.35,0 -3.9,2.3 -3.9,5.55 0,3.24 1.55,5.53 3.9,5.53 2.34,0 3.9,-2.29 3.9,-5.53 z"
   id="path58" />
		<path
   class="st1"
   d="m 465.23,248.47 v 2.43 H 453.6 v -0.52 c 6.38,-5.17 8.98,-7.86 8.98,-9.74 0,-1.75 -1.42,-3.05 -2.91,-3.05 -1.81,0 -3.26,1.44 -3.26,3.31 l -2.22,-0.54 c 0,-2.92 2.42,-5.21 5.41,-5.21 3.04,0 5.43,2.5 5.43,5.36 0,2.69 -2.73,5.72 -6.25,7.96 z"
   id="path60" />
		<path
   class="st1"
   d="m 470.85,235.23 v 15.67 h -2.44 v -12.54 l -2.1,0.63 v -2.54 l 3.82,-1.21 h 0.72 z"
   id="path62" />
	</g>
</g>
<g
   class="st2"
   id="g98"
   transform="matrix(0.78220495,0,0,0.78220495,144.1797,55.324774)">
	<g
   id="g96">
		<path
   class="st1"
   d="m 251.26,266.72 h 4.27 c 2.61,0 4.74,1.96 4.74,4.35 0,2.29 -2.13,4.16 -4.74,4.16 h -2.75 v 4.98 h -1.52 z m 7.49,4.34 c 0,-1.56 -1.45,-2.83 -3.22,-2.83 h -2.75 v 5.49 l 2.75,0.01 c 1.77,0.01 3.22,-1.19 3.22,-2.67 z"
   id="path68" />
		<path
   class="st1"
   d="m 273.67,278.69 v 1.51 h -8.13 v -13.48 h 1.52 v 11.97 z"
   id="path70" />
		<path
   class="st1"
   d="m 287.94,277.99 h -7.36 l -0.99,2.22 h -1.65 l 6.23,-13.69 h 0.17 l 6.24,13.69 h -1.66 z m -0.58,-1.32 -3.09,-6.93 -3.09,6.93 z"
   id="path72" />
		<path
   class="st1"
   d="m 296.27,274.48 -4.76,-7.75 h 1.71 l 3.81,6.05 3.81,-6.05 h 1.71 l -4.77,7.75 v 5.73 h -1.51 z"
   id="path74" />
		<path
   class="st1"
   d="m 313.48,277.99 h -7.36 l -0.99,2.22 h -1.65 l 6.23,-13.69 h 0.17 l 6.24,13.69 h -1.66 z m -0.59,-1.32 -3.09,-6.93 -3.09,6.93 z"
   id="path76" />
		<path
   class="st1"
   d="m 340.25,273.47 c 0,4.11 -2.68,6.73 -6.87,6.73 h -3.75 v -13.48 l 3.75,-0.01 c 4.19,0.01 6.87,2.63 6.87,6.76 z m -1.53,0 c 0,-3.19 -2.09,-5.24 -5.35,-5.24 h -2.22 v 10.45 h 2.25 c 3.24,0 5.32,-2.04 5.32,-5.21 z"
   id="path78" />
		<path
   class="st1"
   d="m 347.33,268.22 v 4.26 h 5.54 V 274 h -5.54 v 4.68 h 6.4 v 1.51 h -7.92 v -13.48 h 7.92 v 1.5 h -6.4 z"
   id="path80" />
		<path
   class="st1"
   d="m 367.7,278.69 v 1.51 h -8.13 v -13.48 h 1.52 v 11.97 z"
   id="path82" />
		<path
   class="st1"
   d="m 380.7,273.47 c 0,-3.79 3.14,-6.94 6.92,-6.94 1.73,0.02 3.41,0.81 4.63,2.04 l -0.89,1.2 c -0.97,-1 -2.33,-1.69 -3.8,-1.69 -2.71,0 -5.33,2.34 -5.33,5.39 0,3.04 2.59,5.38 5.35,5.38 1.52,0 2.82,-0.72 3.79,-1.67 l 0.88,1.22 c -1.12,1.11 -2.63,1.98 -4.62,1.98 -3.74,0 -6.93,-3.09 -6.93,-6.91 z"
   id="path84" />
		<path
   class="st1"
   d="m 406.32,277.99 h -7.36 l -0.99,2.22 h -1.65 l 6.23,-13.69 h 0.17 l 6.24,13.69 h -1.66 z m -0.58,-1.32 -3.08,-6.93 -3.09,6.93 z"
   id="path86" />
		<path
   class="st1"
   d="m 421.83,280.2 -3.76,-5.26 h -2.52 v 5.26 h -1.52 l -0.01,-13.48 H 418 c 2.5,0 4.54,1.92 4.54,4.3 0,1.75 -1.2,3.25 -2.83,3.75 l 4.01,5.44 h -1.89 z m -3.78,-6.53 c 1.61,0 2.93,-1.22 2.93,-2.68 0,-1.55 -1.34,-2.76 -2.93,-2.76 h -2.51 v 5.43 z"
   id="path88" />
		<path
   class="st1"
   d="m 441.91,266.47 v 13.73 h -1.52 v -9.15 l -5.07,8.92 h -0.02 l -5.08,-8.94 v 9.16 h -1.52 v -13.73 h 0.17 l 6.43,10.72 6.43,-10.72 h 0.18 z"
   id="path90" />
		<path
   class="st1"
   d="m 449.7,268.22 v 4.26 h 5.54 V 274 h -5.54 v 4.68 h 6.4 v 1.51 h -7.92 v -13.48 h 7.92 v 1.5 h -6.4 z"
   id="path92" />
		<path
   class="st1"
   d="m 472.77,266.69 v 13.72 h -0.08 l -9.24,-10.26 v 10.07 h -1.52 v -13.71 h 0.08 l 9.23,10.25 v -10.08 h 1.53 z"
   id="path94" />
	</g>
</g>

<g
   id="g126"
   transform="matrix(0.78220495,0,0,0.78220495,144.1797,55.324774)">
	<path
   class="st1"
   d="m 486.94,289.15 c -0.55,0 -1,-0.45 -1,-1 v -2.2 c 0,-0.55 0.45,-1 1,-1 0.55,0 1,0.45 1,1 v 2.2 c 0,0.56 -0.45,1 -1,1 z m 0,-6.19 c -0.55,0 -1,-0.45 -1,-1 v -3 c 0,-0.55 0.45,-1 1,-1 0.55,0 1,0.45 1,1 v 3 c 0,0.55 -0.45,1 -1,1 z m 0,-7 c -0.55,0 -1,-0.45 -1,-1 v -3 c 0,-0.55 0.45,-1 1,-1 0.55,0 1,0.45 1,1 v 3 c 0,0.55 -0.45,1 -1,1 z m 0,-7 c -0.55,0 -1,-0.45 -1,-1 v -3 c 0,-0.55 0.45,-1 1,-1 0.55,0 1,0.45 1,1 v 3 c 0,0.55 -0.45,1 -1,1 z m 0,-7 c -0.55,0 -1,-0.45 -1,-1 v -3 c 0,-0.55 0.45,-1 1,-1 0.55,0 1,0.45 1,1 v 3 c 0,0.55 -0.45,1 -1,1 z m 0,-7 c -0.55,0 -1,-0.45 -1,-1 v -3 c 0,-0.55 0.45,-1 1,-1 0.55,0 1,0.45 1,1 v 3 c 0,0.55 -0.45,1 -1,1 z m 0,-7 c -0.55,0 -1,-0.45 -1,-1 v -3 c 0,-0.55 0.45,-1 1,-1 0.55,0 1,0.45 1,1 v 3 c 0,0.55 -0.45,1 -1,1 z m 0,-7 c -0.55,0 -1,-0.45 -1,-1 v -3 c 0,-0.55 0.45,-1 1,-1 0.55,0 1,0.45 1,1 v 3 c 0,0.55 -0.45,1 -1,1 z m 0,-7 c -0.55,0 -1,-0.45 -1,-1 v -3 c 0,-0.55 0.45,-1 1,-1 0.55,0 1,0.45 1,1 v 3 c 0,0.55 -0.45,1 -1,1 z m 0,-7 c -0.55,0 -1,-0.45 -1,-1 v -3 c 0,-0.55 0.45,-1 1,-1 0.55,0 1,0.45 1,1 v 3 c 0,0.55 -0.45,1 -1,1 z m 0,-7 c -0.55,0 -1,-0.45 -1,-1 v -3 c 0,-0.55 0.45,-1 1,-1 0.55,0 1,0.45 1,1 v 3 c 0,0.55 -0.45,1 -1,1 z m 0,-7 c -0.55,0 -1,-0.45 -1,-1 v -3 c 0,-0.55 0.45,-1 1,-1 0.55,0 1,0.45 1,1 v 3 c 0,0.55 -0.45,1 -1,1 z m 0,-7 c -0.55,0 -1,-0.45 -1,-1 v -3 c 0,-0.55 0.45,-1 1,-1 0.55,0 1,0.45 1,1 v 3 c 0,0.55 -0.45,1 -1,1 z m 0,-7 c -0.55,0 -1,-0.45 -1,-1 v -3 c 0,-0.55 0.45,-1 1,-1 0.55,0 1,0.45 1,1 v 3 c 0,0.55 -0.45,1 -1,1 z m 0,-7 c -0.55,0 -1,-0.45 -1,-1 v -3 c 0,-0.55 0.45,-1 1,-1 0.55,0 1,0.45 1,1 v 3 c 0,0.55 -0.45,1 -1,1 z"
   id="path124" />
</g>
<g
   id="g130"
   transform="matrix(0.78220495,0,0,0.78220495,144.1797,55.324774)">
	<path
   class="st1"
   d="m 238.27,289.15 c -0.55,0 -1,-0.45 -1,-1 v -2.2 c 0,-0.55 0.45,-1 1,-1 0.55,0 1,0.45 1,1 v 2.2 c 0,0.56 -0.45,1 -1,1 z m 0,-6.19 c -0.55,0 -1,-0.45 -1,-1 v -3 c 0,-0.55 0.45,-1 1,-1 0.55,0 1,0.45 1,1 v 3 c 0,0.55 -0.45,1 -1,1 z m 0,-7 c -0.55,0 -1,-0.45 -1,-1 v -3 c 0,-0.55 0.45,-1 1,-1 0.55,0 1,0.45 1,1 v 3 c 0,0.55 -0.45,1 -1,1 z m 0,-7 c -0.55,0 -1,-0.45 -1,-1 v -3 c 0,-0.55 0.45,-1 1,-1 0.55,0 1,0.45 1,1 v 3 c 0,0.55 -0.45,1 -1,1 z m 0,-7 c -0.55,0 -1,-0.45 -1,-1 v -3 c 0,-0.55 0.45,-1 1,-1 0.55,0 1,0.45 1,1 v 3 c 0,0.55 -0.45,1 -1,1 z m 0,-7 c -0.55,0 -1,-0.45 -1,-1 v -3 c 0,-0.55 0.45,-1 1,-1 0.55,0 1,0.45 1,1 v 3 c 0,0.55 -0.45,1 -1,1 z m 0,-7 c -0.55,0 -1,-0.45 -1,-1 v -3 c 0,-0.55 0.45,-1 1,-1 0.55,0 1,0.45 1,1 v 3 c 0,0.55 -0.45,1 -1,1 z m 0,-7 c -0.55,0 -1,-0.45 -1,-1 v -3 c 0,-0.55 0.45,-1 1,-1 0.55,0 1,0.45 1,1 v 3 c 0,0.55 -0.45,1 -1,1 z m 0,-7 c -0.55,0 -1,-0.45 -1,-1 v -3 c 0,-0.55 0.45,-1 1,-1 0.55,0 1,0.45 1,1 v 3 c 0,0.55 -0.45,1 -1,1 z m 0,-7 c -0.55,0 -1,-0.45 -1,-1 v -3 c 0,-0.55 0.45,-1 1,-1 0.55,0 1,0.45 1,1 v 3 c 0,0.55 -0.45,1 -1,1 z m 0,-7 c -0.55,0 -1,-0.45 -1,-1 v -3 c 0,-0.55 0.45,-1 1,-1 0.55,0 1,0.45 1,1 v 3 c 0,0.55 -0.45,1 -1,1 z m 0,-7 c -0.55,0 -1,-0.45 -1,-1 v -3 c 0,-0.55 0.45,-1 1,-1 0.55,0 1,0.45 1,1 v 3 c 0,0.55 -0.45,1 -1,1 z m 0,-7 c -0.55,0 -1,-0.45 -1,-1 v -3 c 0,-0.55 0.45,-1 1,-1 0.55,0 1,0.45 1,1 v 3 c 0,0.55 -0.45,1 -1,1 z m 0,-7 c -0.55,0 -1,-0.45 -1,-1 v -3 c 0,-0.55 0.45,-1 1,-1 0.55,0 1,0.45 1,1 v 3 c 0,0.55 -0.45,1 -1,1 z m 0,-7 c -0.55,0 -1,-0.45 -1,-1 v -3 c 0,-0.55 0.45,-1 1,-1 0.55,0 1,0.45 1,1 v 3 c 0,0.55 -0.45,1 -1,1 z"
   id="path128" />
</g>
</svg>
